<svg xmlns="http://www.w3.org/2000/svg" width="1180" height="593" viewBox="0 0 1180 593">
  <g fill="none" fill-rule="evenodd" transform="translate(0 -8)">
    <g fill-rule="nonzero" transform="translate(0 62)">
      <path fill="#67AA53" d="M0.324,207.904 C50.176,224.194 170.859,286.252 234.003,325.54 C235.898,325.703 95.373,362.93 0.324,403.887"/>
      <g transform="translate(944)">
        <rect width="13" height="87" x="41.67" y="177.404" fill="#A97C50"/>
        <polygon fill="#7DAD3E" points="50.901 .562 93.829 199.262 39.608 200.2"/>
        <polygon fill="#5B9933" points="50.901 .562 .458 199.262 54.68 200.2"/>
      </g>
      <g transform="translate(650 257)">
        <rect width="3" height="24" x="11.67" y="49.404" fill="#A97C50"/>
        <polygon fill="#91AF3E" points="13.489 .333 24.192 55.48 10.672 55.739"/>
        <polygon fill="#799931" points="13.489 .333 .911 55.48 14.431 55.739"/>
      </g>
      <path fill="#A3D371" d="M990.583,281.447 C990.583,281.447 509.157,274.226 100.82,344.57 C33.73,356.127 98.789,497.166 98.789,497.166 L831.432,492.406"/>
      <polyline fill="#81BC4D" points="1029.818 220.146 796.801 306.402 436.79 508.404 811.67 508.404"/>
      <path fill="#81BC4D" d="M632.875,403.582 C632.875,403.582 414.764,491.051 282.914,436.18 C195.732,399.899 97.787,376.668 0.787,364.27 L0.323,538.695 L508.019,538.874"/>
      <polyline fill="#5B9933" points="1178.846 508.482 774.366 508.404 930.428 293.019 1179.134 81.076"/>
      <g transform="translate(47 211)">
        <rect width="14" height="87" x="41.67" y="164.404" fill="#A97C50"/>
        <polygon fill="#5C841C" points="51.143 .068 94.071 198.769 39.849 199.707"/>
        <polygon fill="#587018" points="51.143 .068 .7 198.769 54.92 199.707"/>
      </g>
      <g transform="translate(151 265)">
        <rect width="1" height="10" x="4.67" y="19.404" fill="#A97C50"/>
        <polygon fill="#5C841C" points="6.303 .816 11.121 23.117 5.036 23.222"/>
        <polygon fill="#587018" points="6.303 .816 .641 23.117 6.727 23.222"/>
      </g>
      <g transform="translate(167 274)">
        <rect width="1" height="6" x="2.67" y="10.404" fill="#A97C50"/>
        <polygon fill="#5C841C" points="3.831 .079 6.699 13.351 3.077 13.414"/>
        <polygon fill="#587018" points="3.831 .079 .461 13.351 4.084 13.414"/>
      </g>
      <path fill="#659933" d="M858.819,392.097 C858.819,392.097 619.383,444.595 611.49,444.595 C603.597,444.595 393.016,465.471 388.28,464.158 C383.544,462.845 213.178,538.769 213.178,538.769 L936.287,538.871"/>
      <polyline fill="#537A26" points="1178.788 538.404 1178.959 362.392 765.626 487.648 528.012 509.302 662.479 538.923"/>
      <g transform="translate(702 191)">
        <rect width="7" height="44" x="20.67" y="89.404" fill="#A97C50"/>
        <polygon fill="#91AF3E" points="25.434 .929 46.921 100.388 19.781 100.857"/>
        <polygon fill="#799931" points="25.434 .929 .185 100.388 27.326 100.857"/>
      </g>
      <g transform="translate(286 255)">
        <rect width="5" height="24" x="10.67" y="49.404" fill="#A97C50"/>
        <polygon fill="#91AF3E" points="14.34 .623 26.172 55.394 11.227 55.652"/>
        <polygon fill="#799931" points="14.34 .623 .436 55.394 15.381 55.652"/>
      </g>
      <polyline fill="#567A26" points="72.34 .07 113.083 52.191 262.828 86.787 40.588 175.222 .819 99.097" opacity=".4" transform="translate(858 293)"/>
    </g>
    <g fill-rule="nonzero" transform="translate(410 336)">
      <polyline fill="#000000" points="343.135 86.22 306.221 108.63 286.695 97.915 330.424 83.294" opacity=".2"/>
      <polyline fill="#000000" points="386.093 188.666 297.186 194.877 305.449 179.832 401.218 145.184" opacity=".2"/>
      <polygon fill="#2E72E8" points="401.218 145.184 318.289 155.582 302.553 193.271 386.534 186.017"/>
      <polygon fill="#C1C1C1" points="401.35 145.308 318.42 155.705 301.34 191.771 385.321 184.517"/>
      <polygon fill="#F5F6F7" points="401.218 145.184 318.289 155.582 300.887 190.595 384.868 183.341"/>
      <polygon fill="#C1C1C1" points="401.218 145.184 318.289 155.582 300.403 189.36 383.23 182.207"/>
      <polygon fill="#2E72E8" points="401.218 145.184 318.289 155.582 298.606 188.666 382.587 181.412"/>
      <polygon fill="#000000" points="344.68 156.406 324.373 158.896 310.442 182.312 332.486 180.117" opacity=".2"/>
      <polygon fill="#953D33" points="288.088 96.834 325.198 75.488 343.485 84.935 306.937 107.792"/>
      <polygon fill="#C1C1C1" points="288.088 96.834 325.198 75.488 343.523 83.912 306.973 106.767"/>
      <polygon fill="#F5F6F7" points="288.088 96.834 325.198 75.488 343.322 83.417 306.774 106.273"/>
      <polygon fill="#C1C1C1" points="288.088 96.834 325.198 75.488 343.13 82.802 307.084 105.345"/>
      <path fill="#953D33" d="M324.803,75.506 C324.803,75.506 342.565,82.555 343.213,80.193 L306.983,102.116 C306.983,102.116 296.01,101.768 288.088,96.835"/>
      <polygon fill="#000000" points="320.674 80.093 324.063 77.982 336.157 81.937 332.709 84.208" opacity=".2"/>
      <polygon fill="#000000" points="315.415 83.486 318.803 81.376 330.897 85.332 327.45 87.601" opacity=".2"/>
      <polygon fill="#000000" points="309.942 87.064 313.333 84.954 325.424 88.908 321.978 91.179" opacity=".2"/>
      <polygon fill="#8E8E8E" points="514.563 .464 485.723 8.445 478.388 19.86 507.902 12.988"/>
      <polygon fill="#C1C1C1" points="514.563 .464 485.723 8.445 478.014 19.492 507.463 12.615"/>
      <polygon fill="#F5F6F7" points="514.682 .601 485.842 8.58 478.079 18.876 507.112 12.183"/>
      <polygon fill="#C1C1C1" points="514.563 .464 485.723 8.445 478.079 18.382 506.495 11.832"/>
      <path fill="#8E8E8E" d="M514.682,0.161 C514.682,0.161 507.393,10.721 505.324,11.271 L477.468,17.791 C477.468,17.791 481.536,14.945 484.909,8.334 L514.682,0.161 Z"/>
      <polygon fill="#000000" points="510.341 2.669 502.523 4.855 496.668 12.054 504.572 9.907" opacity=".2"/>
      <path fill="#FFFFFF" d="M249.574,184.781 C249.574,184.781 220.421,188.789 209.124,185.236 L219.972,163.972 C219.972,163.972 236.265,169.155 255.183,157.093 L249.574,184.781 Z"/>
      <path fill="#FFFFFF" d="M214.648,182.662 C214.648,182.662 199.684,197.715 181.782,197.459 L191.915,178.351 C191.915,178.351 213.161,179.677 226.612,159.833"/>
      <path fill="#C1C1C1" d="M252.964,182.187 C252.964,182.187 221.591,187.707 210.293,184.154 L220.695,159.448 C220.695,159.448 239.653,166.562 258.572,154.499 L252.964,182.187 Z"/>
      <path fill="#C1C1C1" d="M212.372,183.341 C212.372,183.341 195.845,196.517 177.944,196.263 L188.077,177.152 C188.077,177.152 209.323,178.478 222.774,158.634"/>
      <polyline fill="#000000" points="257.432 157.871 252.297 186.705 178.768 200.8 187.174 179.335" opacity=".2"/>
      <path fill="#D1B97D" d="M254.023,180.609 C254.023,180.609 222.65,186.127 211.353,182.576 L221.755,157.871 C221.755,157.871 240.713,164.984 259.631,152.922 L254.023,180.609 Z"/>
      <path fill="#BFA773" d="M211.353,182.576 C211.353,182.576 194.825,195.754 176.924,195.498 L187.057,176.389 C187.057,176.389 208.303,177.715 221.755,157.871"/>
      <path fill="#000000" d="M221.098,172.986 L218.573,179.093 C218.573,179.093 241.366,179.974 249.331,176.53 L251.184,170.29 C251.183,170.291 230.895,175.343 221.098,172.986 Z" opacity=".2"/>
      <g transform="translate(0 211)">
        <path fill="#FFFFFF" d="M88.469,43.968 C88.469,43.968 53.688,34.161 42.718,24.614 L65.37,6.009 C65.37,6.009 81.163,19.844 108.381,15.559 L88.469,43.968 Z"/>
        <path fill="#FFFFFF" d="M50.2,24.431 C50.2,24.431 25.965,34.023 5.94,24.943 L26.731,8.414 C26.731,8.414 49.993,20.34 74.877,4.611"/>
        <path fill="#C1C1C1" d="M93.561,42.715 C93.561,42.715 55.539,33.519 44.567,23.97 L68.409,1.273 C68.409,1.273 86.253,18.59 113.472,14.304 L93.561,42.715 Z"/>
        <path fill="#C1C1C1" d="M47.305,24.078 C47.305,24.078 22.231,30.791 2.207,21.713 L23,5.179 C23,5.179 46.262,17.107 71.146,1.376"/>
        <polyline fill="#000000" points="110.532 17.539 90.59 47.472 .907 27.224 20.912 7.193" opacity=".2"/>
        <path fill="#EC174F" d="M95.528,41.458 C95.528,41.458 57.505,32.261 46.534,22.716 L70.376,0.017 C70.376,0.017 88.22,17.335 115.439,13.048 L95.528,41.458 Z"/>
        <path fill="#BC0840" d="M46.534,22.716 C46.534,22.716 21.46,29.43 1.436,20.351 L22.227,3.819 C22.227,3.819 45.488,15.746 70.375,0.017"/>
        <path fill="#000000" d="M64.452,12.562 L55.38,22.07 C55.38,22.07 79.296,36.652 91.537,35.022 L100.013,24.892 C100.012,24.892 72.683,22.375 64.452,12.562 Z" opacity=".2"/>
      </g>
    </g>
    <g transform="translate(16)">
      <polyline fill="#231F20" fill-rule="nonzero" points="142.43 442.301 142.554 442.911 144.728 444.594 145.01 445.523 137.84 444.996 137.709 443.83 138.592 441.562"/>
      <polyline fill="#414042" fill-rule="nonzero" points="136.472 414.463 141.732 427.475 142.889 443.089 137.868 442.119 135.125 428.356 133.239 425.3"/>
      <polygon fill="#000000" fill-rule="nonzero" points="133.471 425.673 133.89 424.722 135.877 428.351 137.868 442.119 135.117 428.359" opacity=".2"/>
      <polyline fill="#231F20" fill-rule="nonzero" points="125.939 443.361 125.682 443.941 126.481 446.582 126.172 447.515 120.598 443.019 121.17 441.968 123.219 440.566"/>
      <polyline fill="#414042" fill-rule="nonzero" points="136.134 416.492 133.563 430.289 126.422 443.536 121.979 440.88 127.522 427.472 125.495 419.803"/>
      <path fill="#FFFFFF" fill-rule="nonzero" d="M134.456,398.671 C134.483,398.908 137.844,417.915 137.844,417.915 L125.495,419.803 C125.495,419.803 125.79,404.402 128.609,398.937 C128.953,398.732 134.003,398.219 134.003,398.219"/>
      <circle cx="126.883" cy="393.11" r="1.19" fill="#FFCCA6" fill-rule="nonzero"/>
      <polygon fill="#000000" fill-rule="nonzero" points="125.495 419.803 137.843 417.916 125.668 420.472" opacity=".2"/>
      <path fill="#000000" fill-rule="nonzero" d="M147.036,417.208 L148.046,418.813 L147.25,419.303 L146.315,417.713 C146.315,417.713 144.868,416.109 146.738,415.205 L147.825,414.575 L148.214,415.244 L147.115,415.974 C147.115,415.976 146.336,416.276 147.036,417.208 Z"/>
      <polygon fill="#FFFFFF" fill-rule="nonzero" points="123.604 408 125.264 401.525 128.602 398.935 128.159 409.775"/>
      <polyline fill="#FFFFFF" fill-rule="nonzero" points="135.915 398.729 139.6 405.402 138.454 410.081 135.409 407.224 133.987 398.111"/>
      <g fill="#FFCCA6" fill-rule="nonzero" transform="translate(124 415)">
        <path d="M3.216.091C3.216.091 4.369 4.556 4.477 4.927 4.582 5.298 4.715 5.699 5.522 5.895L6.391 6.148C6.391 6.148 6.773 6.132 6.944 6.743L3.243 8.117C3.243 8.117 3.073 8.043 2.827 7.049 2.579 6.055 4.149 8.678.733 1.547M7.317 8.72C7.317 8.72 7.469 9.329 6.853 9.45 6.853 9.45 5.188 10.073 4.633 10.057 4.633 10.057 4.034 10.026 3.893 9.578"/>
        <polyline points="6.944 6.743 7.317 8.72 3.926 9.657 3.121 7.941"/>
        <path d="M6.836,6.564 C6.836,6.564 7.616,8.01 7.915,8.064 C8.213,8.117 7.319,8.791 6.982,8.193"/>
      </g>
      <polygon fill="#000000" fill-rule="nonzero" points="128.813 407.803 128.069 407.908 127.534 409.558 126.554 412.587 128.135 418.56 127.94 413.615" opacity=".2"/>
      <polyline fill="#000000" fill-rule="nonzero" points="125.574 418.319 125.51 419.908 126.321 422.932 126.44 420.394" opacity=".2"/>
      <polygon fill="#000000" fill-rule="nonzero" points="127.522 427.472 123.223 441.623 121.979 440.88" opacity=".2"/>
      <polygon fill="#FFCCA6" fill-rule="nonzero" points="129.127 399.072 133.987 398.111 133.157 393.218 128.577 394.185"/>
      <polygon fill="#000000" fill-rule="nonzero" points="129.127 399.072 128.817 396.322 131.751 396.14" opacity=".1"/>
      <path fill="#FFCCA6" fill-rule="nonzero" d="M126.635,393.41 C126.99,396.124 129.24,398.07 131.668,397.753 C134.092,397.44 135.773,394.982 135.418,392.269 C135.066,389.552 132.814,387.61 130.387,387.925 C127.965,388.24 126.284,390.693 126.635,393.41 Z"/>
      <polyline fill="#FFFFFF" fill-rule="nonzero" points="123.622 407.828 123.168 413.023 126.897 421.424 128.913 420.17 126.554 412.587 128.069 407.908"/>
      <path fill="#FFCCA6" fill-rule="nonzero" d="M133.987,398.111 C133.987,398.111 133.174,401.745 129.128,399.072"/>
      <path fill="#414042" fill-rule="nonzero" d="M134.489,389.757 C134.395,389.573 135.719,388.128 133.042,387.015 C130.523,385.999 124.771,386.062 125.827,392.567 C125.854,392.19 127.477,393.42 127.477,393.42 L127.8,389.344"/>
      <g fill="#FFCCA6" fill-rule="nonzero" transform="translate(141 409)">
        <path d="M1.689.374C1.689.374 4.826 3.437 5.06 3.67 5.29 3.899 5.553 4.139 6.231 3.95L6.973 3.775C6.973 3.775 7.249 3.604 7.629 3.982L5.466 6.529C5.466 6.529 5.314 6.543 4.721 5.913 4.129 5.284 5.907 6.671.437 2.834M8.723 5.286C8.723 5.286 9.086 5.676 8.681 6.019 8.681 6.019 7.709 7.165 7.299 7.384 7.299 7.384 6.844 7.611 6.553 7.338"/>
        <polyline points="7.629 3.982 8.723 5.286 6.612 7.38 5.305 6.449"/>
        <path d="M7.477,3.9 C7.477,3.9 8.649,4.641 8.892,4.554 C9.133,4.47 8.753,5.337 8.258,5.036"/>
      </g>
      <polygon fill="#000000" fill-rule="nonzero" points="149.022 414.367 149.553 414.603 147.983 413.558 145.93 415.06 146.406 415.459 146.913 414.726 147.452 414.25 147.957 413.923" opacity=".2"/>
      <polyline fill="#FFFFFF" fill-rule="nonzero" points="135.167 406.035 138.454 410.081 145.323 415.086 146.065 412.225 140.586 407.414 139.6 405.402"/>
      <polyline fill="#000000" fill-rule="nonzero" points="124.602 449.401 144.533 444.642 121.291 444.564" opacity=".1"/>
      <polyline fill="#EC174F" fill-rule="nonzero" points="132.719 399.631 133.636 400.261 133.128 401.029 137.154 415.525 136.22 418.125 134.337 415.74 132.34 401.306 131.519 400.668 131.813 399.769"/>
      <polygon fill="#000000" fill-rule="nonzero" points="132.34 401.306 134.02 416.185 136.22 418.125 134.337 415.74" opacity=".2"/>
      <polyline fill="#FFFFFF" fill-rule="nonzero" points="128.996 397.896 129.161 399.287 131.519 400.668 131.813 399.769"/>
      <polyline fill="#FFFFFF" fill-rule="nonzero" points="133.84 397.154 132.719 399.631 133.636 400.261 134.087 398.501"/>
      <polygon fill="#000000" fill-rule="nonzero" points="135.327 403.572 136.182 407.951 138.454 410.081 142.205 412.815 137.038 407.306" opacity=".2"/>
      <polygon fill="#000000" fill-rule="nonzero" points="157.075 411.693 151.616 415.342 142.5 421.439 148.173 431.11 162.708 420.884"/>
      <path fill="#000000" fill-rule="nonzero" d="M150.676,414.841 L151.614,416.492 L152.423,416.02 L151.468,414.444 C151.468,414.444 150.741,412.415 149.058,413.632 L148.333,414.078 L149.202,414.516 L149.554,414.328 C149.553,414.33 150.188,413.789 150.676,414.841 Z"/>
    </g>
    <g transform="translate(16)">
      <polyline fill="#FFCCA6" fill-rule="nonzero" points="239.715 362.672 243.647 366.037 252.584 367.884 252.575 365.693 245.252 363.052 242.35 359.127"/>
      <g fill-rule="nonzero" transform="translate(244 357)">
        <rect width="8.802" height="12.522" x="1.746" y="1.959" fill="#7A6654" transform="rotate(-169.263 6.147 8.22)"/>
        <rect width="7.3" height="10.924" x="2.484" y="2.729" fill="#FFFFFF" transform="rotate(-169.252 6.134 8.19)"/>
        <path fill="#8E8E8E" d="M5.394,1.375 L5.311,1.813 L5.104,2.909 L9.044,3.655 L9.252,2.56 L9.334,2.122 L8.24,1.915 C8.341,1.387 8.058,0.975 7.529,0.874 C7.004,0.772 6.59,1.056 6.488,1.583 L5.394,1.375 Z M7.036,1.687 C7.071,1.505 7.246,1.384 7.428,1.419 C7.609,1.454 7.728,1.63 7.695,1.812 C7.66,1.993 7.485,2.11 7.302,2.077 C7.122,2.042 7.002,1.867 7.036,1.687 Z"/>
        <rect width="4.01" height=".628" x="5.159" y="2.314" fill="#E6E7E8" transform="rotate(-169.28 7.164 2.814)"/>
        <polygon fill="#29CE7F" points="7.961 4.875 8.768 6.058 9.411 5.623 9.139 5.228 8.895 5.395 8.356 4.605"/>
        <polygon fill="#29CE7F" points="7.647 6.534 8.454 7.718 9.096 7.285 8.827 6.889 8.58 7.056 8.042 6.265"/>
        <polygon fill="#29CE7F" points="7.332 8.195 8.139 9.38 8.78 8.944 8.51 8.549 8.265 8.716 7.727 7.925"/>
        <polygon fill="#29CE7F" points="7.017 9.855 7.825 11.041 8.464 10.604 8.196 10.209 7.951 10.376 7.413 9.585"/>
        <rect width="3.107" height=".32" x="4.134" y="3.927" fill="#E6E7E8" transform="rotate(-169.258 5.688 4.427)"/>
        <rect width="3.107" height=".321" x="3.819" y="5.586" fill="#E6E7E8" transform="rotate(-169.258 5.373 6.086)"/>
        <rect width="3.107" height=".322" x="3.504" y="7.247" fill="#E6E7E8" transform="rotate(-169.258 5.058 7.747)"/>
        <rect width="3.106" height=".32" x="3.167" y="8.918" fill="#E6E7E8" transform="rotate(-169.258 4.72 9.418)"/>
      </g>
      <polyline fill="#231F20" fill-rule="nonzero" points="242.805 396.884 242.938 397.488 245.127 399.115 245.426 400.029 238.303 399.649 238.149 398.492 238.977 396.225"/>
      <polyline fill="#231F20" fill-rule="nonzero" points="221.373 396.724 221.004 397.232 221.232 399.961 220.737 400.804 216.256 395.285 217.032 394.382 219.309 393.446"/>
      <path fill="#D8B06A" fill-rule="nonzero" d="M232.152,346.25 C232.152,346.25 232.34,349.288 233.408,350.586 C233.55,350.606 234.793,350.951 234.793,350.951 C234.793,350.951 235.905,348.553 235.871,348.377 C235.839,348.199 235.431,346.378 235.329,346.198"/>
      <polyline fill="#72E3E8" fill-rule="nonzero" points="236.836 372.746 231.481 385.609 221.806 396.992 218.042 393.493 226.2 381.626 225.864 374.634"/>
      <polyline fill="#72E3E8" fill-rule="nonzero" points="236.343 369.373 241.819 382.184 243.274 397.659 238.27 396.792 235.28 383.185 233.347 380.189"/>
      <path fill="#72E3E8" fill-rule="nonzero" d="M239.606,353.852 C239.585,354.124 239.585,376.309 239.585,376.309 L225.44,375.244 C225.44,375.244 229.591,358.45 233.505,352.957 C233.881,352.805 239.266,353.24 239.266,353.24"/>
      <polyline fill="#FFFFFF" fill-rule="nonzero" points="239.188 353.525 237.415 358.504 233.887 353.1"/>
      <polyline fill="#FFCCA6" fill-rule="nonzero" points="227.19 360.525 225.674 365.474 227.554 374.404 229.433 373.575 229.053 365.753 231.492 361.525"/>
      <circle cx="233.25" cy="345.511" r="1.325" fill="#FFCCA6" fill-rule="nonzero"/>
      <polygon fill="#000000" fill-rule="nonzero" points="225.892 375.224 239.298 376.288 225.932 376.079" opacity=".2"/>
      <polygon fill="#72E3E8" fill-rule="nonzero" points="226.838 360.713 230.094 354.748 233.866 352.925 231.194 363.355"/>
      <polyline fill="#72E3E8" fill-rule="nonzero" points="241.01 354.239 243.817 360.165 240.592 364.759 238.762 362.381 239.266 353.24"/>
      <polyline fill="#414042" fill-rule="nonzero" points="233.252 353.221 237.565 360.282 239.989 353.636 239.473 353.367 237.453 358.896 233.677 352.931" opacity=".2"/>
      <rect width=".67" height="1.643" x="226.892" y="375.774" fill="#29CE7F" fill-rule="nonzero" transform="rotate(-99.904 227.392 376.595)"/>
      <path fill="#FFCCA6" fill-rule="nonzero" d="M254.149,367.794 C254.619,367.849 254.895,367.306 254.895,367.306 C255.133,366.798 255.242,365.002 255.242,365.002 C255.384,364.382 254.756,364.271 254.756,364.271 L253.741,364.516 C253.741,364.516 253.397,364.731 253.348,365.116 L253.061,367.199 C253.061,367.199 253.009,367.974 253.339,367.928 L254.149,367.794 Z"/>
      <g fill="#FFCCA6" fill-rule="nonzero" transform="translate(226 365)">
        <path d="M2.962.677C2.962.677 3.373 7.896 3.399 8.279 3.425 8.662 3.471 9.078 4.214 9.435L5.004 9.858C5.004 9.858 5.379 9.923 5.422 10.552L1.539 11.117C1.539 11.117 1.391 11.009 1.357 9.996 1.324 8.98 1.92 9.962.08 2.332M5.373 12.548C5.373 12.548 5.392 13.175 4.769 13.163 4.769 13.163 3.024 13.42 2.49 13.294 2.49 13.294 1.914 13.138 1.872 12.676"/>
        <polyline points="5.422 10.552 5.373 12.548 1.885 12.757 1.458 10.923"/>
        <path d="M5.349,10.359 C5.349,10.359 5.809,11.923 6.088,12.037 C6.367,12.151 5.358,12.619 5.155,11.969"/>
      </g>
      <rect width=".668" height="1.643" x="231.476" y="375.075" fill="#29CE7F" fill-rule="nonzero" transform="rotate(-99.933 231.976 375.897)"/>
      <polygon fill="#000000" fill-rule="nonzero" points="232.237 361.578 231.194 363.355 230.633 363.015 229.053 365.753 229.352 371.882 230.184 367.037" opacity=".2"/>
      <polyline fill="#000000" fill-rule="nonzero" points="226.725 370.464 225.44 375.244 227.376 375.341 227.887 373.695" opacity=".2"/>
      <polygon fill="#000000" fill-rule="nonzero" points="239.586 363.454 239.588 361.601 243.647 366.037 241.175 363.933 240.592 364.759" opacity=".2"/>
      <polygon fill="#000000" fill-rule="nonzero" points="233.584 380.557 233.981 379.605 236.025 383.167 238.27 396.792 235.272 383.189" opacity=".2"/>
      <polygon fill="#000000" fill-rule="nonzero" points="226.2 381.626 219.096 394.474 218.042 393.493" opacity=".2"/>
      <polygon fill="#FFCCA6" fill-rule="nonzero" points="234.35 353.165 239.266 353.24 239.475 348.315 234.829 348.306"/>
      <polygon fill="#000000" fill-rule="nonzero" points="234.35 353.165 234.62 350.431 237.506 350.863" opacity=".1"/>
      <ellipse cx="237.815" cy="346.198" fill="#FFCCA6" fill-rule="nonzero" transform="rotate(-175.365 237.815 346.198)" rx="4.928" ry="5.518"/>
      <path fill="#FFCCA6" fill-rule="nonzero" d="M239.266,353.24 C239.266,353.24 237.725,356.597 234.35,353.165"/>
      <path fill="#D8B06A" fill-rule="nonzero" d="M243.4,344.755 C243.338,344.53 244.024,342.14 241.368,340.304 C238.864,338.616 232.419,337.304 232.056,344.626 C232.175,344.224 233.823,345.986 233.823,345.986 L235.136,341.612"/>
      <polyline fill="#000000" fill-rule="nonzero" points="244.835 399.267 217.434 398.623 214.743 402.539 239.529 402.567" opacity=".1"/>
      <g>
        <polyline fill="#7C573E" fill-rule="nonzero" points="159.385 382.068 162.602 384.175 169.364 384.691 169.15 383.077 163.504 381.824 160.994 379.205"/>
        <polyline fill="#231F20" fill-rule="nonzero" points="164.9 406.99 165.055 407.422 166.823 408.416 167.129 409.06 161.842 409.454 161.621 408.616 162.016 406.867"/>
        <polyline fill="#231F20" fill-rule="nonzero" points="149.088 408.901 148.866 409.31 149.291 411.3 149.006 411.968 145.181 408.324 145.668 407.585 147.257 406.679"/>
        <path fill="#303030" fill-rule="nonzero" d="M152.256,370.679 C152.256,370.679 152.684,372.9 153.594,373.755 C153.699,373.755 154.65,373.894 154.65,373.894 C154.65,373.894 155.242,372.021 155.2,371.894 C155.16,371.767 154.687,370.462 154.595,370.339"/>
        <path fill="#EC174F" fill-rule="nonzero" d="M154.721,374.739 C154.721,374.739 151.89,375.017 151.773,375.134 C151.657,375.249 150.674,375.667 150.539,376.596 C150.404,377.525 150.366,385.599 150.942,387.551 L155.557,384.489 L154.572,375.134"/>
        <polyline fill="#FCA488" fill-rule="nonzero" points="158.219 389.763 155.487 399.751 149.434 409.056 146.327 406.833 151.217 397.316 150.308 392.194"/>
        <polygon fill="#FCA488" fill-rule="nonzero" points="149.709 381.841 151.545 377.136 154.153 375.437 153.17 383.376"/>
        <polyline fill="#FCA488" fill-rule="nonzero" points="157.536 387.325 162.782 396.25 165.321 407.517 161.547 407.351 158.058 397.605 156.35 395.581"/>
        <path fill="#FCA488" fill-rule="nonzero" d="M158.47,375.578 C158.482,375.78 160.579,392.131 160.579,392.131 L150.054,392.685 C150.054,392.685 151.524,379.914 153.89,375.495 C154.153,375.349 158.162,375.159 158.162,375.159"/>
        <path fill="#414042" fill-rule="nonzero" d="M153.954,375.451 L155.669,386.293 C152.326,388.348 150.847,386.909 150.847,386.909 L150.751,386.679 C152.832,387.777 154.089,386.532 154.089,386.532 L152.335,375.852"/>
        <polyline fill="#FFFFFF" fill-rule="nonzero" points="158.133 375.375 157.295 379.212 154.186 375.563"/>
        <polyline fill="#7C573E" fill-rule="nonzero" points="149.95 381.669 149.303 385.461 151.534 391.865 152.838 391.076 151.821 385.346 153.215 381.999"/>
        <path fill="#7C573E" fill-rule="nonzero" d="M152.016,370.076 C152.039,370.619 152.501,371.039 153.044,371.014 C153.586,370.988 154.006,370.528 153.981,369.987 C153.956,369.441 153.495,369.022 152.952,369.049 C152.409,369.073 151.989,369.534 152.016,370.076 Z"/>
        <polygon fill="#000000" fill-rule="nonzero" points="150.385 392.625 160.367 392.141 150.497 393.252" opacity=".2"/>
        <g fill="#7C573E" fill-rule="nonzero" transform="translate(149 385)">
          <path d="M2.745.3C2.745.3 3.731 5.581 3.786 5.861 3.841 6.141 3.915 6.443 4.497 6.636L5.118 6.872C5.118 6.872 5.401 6.885 5.493 7.345L2.684 8.128C2.684 8.128 2.565 8.064 2.445 7.319 2.324 6.575 2.856 7.241.778 1.792M5.645 8.821C5.645 8.821 5.717 9.281 5.257 9.331 5.257 9.331 3.996 9.685 3.59 9.644 3.59 9.644 3.15 9.583 3.076 9.247"/>
          <polyline points="5.493 7.345 5.645 8.821 3.094 9.305 2.606 7.994"/>
          <path d="M5.419,7.208 C5.419,7.208 5.906,8.319 6.122,8.376 C6.34,8.433 5.641,8.874 5.43,8.412"/>
        </g>
        <polyline fill="#FCA488" fill-rule="nonzero" points="159.542 375.728 162.172 379.831 160.23 383.523 158.655 381.943 158.163 375.158"/>
        <polyline fill="#414042" fill-rule="nonzero" points="153.729 375.712 157.575 380.509 158.733 375.382 158.328 375.231 157.362 379.498 154.014 375.458" opacity=".2"/>
        <polygon fill="#000000" fill-rule="nonzero" points="153.77 381.968 153.17 383.376 152.723 383.179 151.821 385.346 152.619 389.835 152.774 386.186" opacity=".2"/>
        <polyline fill="#000000" fill-rule="nonzero" points="150.549 389.041 150.054 392.684 151.491 392.574 151.711 391.311" opacity=".2"/>
        <polygon fill="#000000" fill-rule="nonzero" points="159.365 382.656 159.192 381.291 162.602 384.175 160.582 382.858 160.23 383.523" opacity=".2"/>
        <polygon fill="#000000" fill-rule="nonzero" points="156.559 395.83 156.762 395.089 158.605 397.523 161.547 407.351 158.052 397.609" opacity=".2"/>
        <polygon fill="#000000" fill-rule="nonzero" points="151.217 397.316 147.198 407.457 146.327 406.833" opacity=".2"/>
        <polygon fill="#7C573E" fill-rule="nonzero" points="154.533 375.567 158.163 375.158 157.85 371.507 154.426 371.941"/>
        <polygon fill="#000000" fill-rule="nonzero" points="154.533 375.567 154.473 373.528 156.641 373.573" opacity=".1"/>
        <ellipse cx="156.433" cy="370.091" fill="#7C573E" fill-rule="nonzero" transform="rotate(177.318 156.433 370.09)" rx="3.662" ry="4.099"/>
        <path fill="#7C573E" fill-rule="nonzero" d="M158.163,375.158 C158.163,375.158 157.345,377.779 154.533,375.567"/>
        <path fill="#303030" fill-rule="nonzero" d="M159.192,367.426 C159.126,367.267 160.619,366.526 158.488,365.423 C156.483,364.417 151.608,364.06 152.034,369.491 C152.085,369.182 153.466,370.327 153.466,370.327 L153.983,367.575"/>
        <circle cx="153.77" cy="364.228" r="2.155" fill="#303030" fill-rule="nonzero"/>
        <polyline fill="#000000" fill-rule="nonzero" points="166.623 408.555 146.364 410.671 144.752 413.814 163.023 411.489" opacity=".1"/>
        <polyline fill="#414042" fill-rule="nonzero" points="159.343 386.207 159.343 386.242 160.178 386.207 159.551 375.359 158.51 375.236"/>
        <g fill-rule="nonzero" transform="translate(164 378)">
          <rect width="4.437" height="5.407" x="1.346" y="1.433" fill="#EC174F" transform="rotate(-156.178 3.565 4.136)"/>
          <rect width="3.926" height="5.406" x="1.537" y="1.706" fill="#FFFFFF" transform="rotate(-156.178 3.5 4.409)"/>
          <rect width="4.417" height="5.407" x="1.033" y="2" fill="#EC174F" transform="rotate(-156.178 3.242 4.703)"/>
          <rect width="4.437" height="5.407" x="1.319" y="2.528" fill="#818182" transform="rotate(-156.178 3.537 5.232)"/>
          <rect width="3.925" height="5.409" x="1.506" y="2.782" fill="#FFFFFF" transform="rotate(-156.172 3.468 5.487)"/>
          <rect width="4.416" height="5.408" x="1.197" y="3.003" fill="#818182" transform="rotate(-156.157 3.405 5.707)"/>
        </g>
        <path fill="#7C573E" fill-rule="nonzero" d="M169.056,385.408 C169.384,385.533 169.682,385.189 169.682,385.189 C169.944,384.865 170.343,383.589 170.343,383.589 C170.555,383.169 170.123,382.976 170.123,382.976 L169.347,382.97 C169.347,382.97 169.061,383.064 168.957,383.334 L168.377,384.783 C168.377,384.783 168.201,385.333 168.447,385.358 L169.056,385.408 Z"/>
      </g>
    </g>
    <g fill-rule="nonzero" transform="translate(204 357)">
      <polyline fill="#414042" points="21.657 45.923 27.589 47.082 28.416 33.736 29.522 29.697 25.358 17.49"/>
      <polyline fill="#FFCCA6" points="42.514 24.415 43.252 23.466 44.971 22.621 46.194 21.466 43.788 19.917 40.487 22.734"/>
      <polyline fill="#231F20" points="25.124 79.371 29.772 82 30.115 83.201 21.379 82.662 21.676 81.454"/>
      <polyline fill="#231F20" points="10.528 78.002 11.776 83.187 11.073 84.219 5.889 77.168 8.016 76.478"/>
      <path fill="#EFB054" d="M13.49,13.515 C13.49,13.515 15.064,5.013 15.005,4.9 C14.335,-0.321 9.345,0.545 9.364,0.633 C4.137,-0.516 2.723,6.521 2.723,6.521 C2.723,6.521 2.063,14.264 0.655,14.912" transform="translate(13)"/>
      <polyline fill="#FFD6A9" points="25.495 42.683 31.268 57.715 25.552 79.9 21.759 81.349 24.853 58.896 17.627 47.562"/>
      <polyline fill="#414042" points="25.596 17.426 21.513 17.592 22.068 37.142 24.33 39.572 25.198 39.636"/>
      <polyline fill="#FFD6A9" points="27.827 47.302 18.891 61.595 10.528 78.002 8.016 76.478 13.692 58.572 22.274 35.773"/>
      <path fill="#414042" d="M23.844,14.912 C23.815,15.324 27.764,44.258 27.764,44.258 L14.01,44.482 C14.01,44.482 11.483,24.613 16.5,17.277 C16.971,17.035 25.016,18.003 25.016,18.003"/>
      <path fill="#EC174F" d="M19.166,17.424 L23.716,27.892 L25.302,17.488 C25.301,17.488 20.069,17.494 19.166,17.424 Z"/>
      <polygon fill="#FFCCA6" points="19.135 17.424 25.303 17.451 24.458 11.535 19.098 12.005"/>
      <ellipse cx="17.567" cy="9.641" fill="#FFCCA6" transform="rotate(179.507 17.567 9.641)" rx="1.534" ry="1.487"/>
      <path fill="#000000" d="M0.135,0.424 C4.422,3.97 6.303,0.45 6.303,0.45" opacity=".2" transform="translate(19 17)"/>
      <path fill="#FFCCA6" d="M19.166,17.424 C23.499,20.38 25.304,17.45 25.304,17.45"/>
      <polygon fill="#000000" points="23.384 15.231 19.166 17.424 19.135 13.515" opacity=".1"/>
      <path fill="#FFCCA6" d="M17.285,9.613 C17.317,13.142 19.677,15.983 22.559,15.959 C25.442,15.933 27.514,13.098 27.483,9.568 C27.452,6.038 25.331,3.152 22.448,3.175 C19.567,3.203 17.253,6.084 17.285,9.613 Z"/>
      <polyline fill="#000000" points="44.126 20.552 44.379 21.513 44.944 21.197 44.199 20.474" opacity=".1"/>
      <path fill="#EFB054" d="M22.225,2.919 C22.225,2.919 19.541,3.681 18.371,8.21 L17.393,8.155 L16.681,5.943 L20.187,2.331"/>
      <polygon fill="#414042" points="27.764 44.257 31.695 59.125 12.122 63.12 14.02 44.273"/>
      <rect width=".585" height=".587" x="16.758" y="10.313" fill="#D1B97D" transform="rotate(-128.361 17.258 10.813)"/>
      <path fill="#414042" d="M46.153,10.839 C45.788,12.042 46.179,13.226 47.024,13.48 C47.866,13.734 48.844,12.962 49.206,11.757 C49.569,10.552 49.181,9.37 48.335,9.116 C47.491,8.862 46.513,9.634 46.153,10.839 Z"/>
      <rect width="4.278" height="4.049" x="44.303" y="13.375" fill="#EC174F" transform="rotate(-163.268 46.442 15.4)"/>
      <rect width="1.473" height="6.214" x="44.208" y="17.235" fill="#414042" transform="rotate(-163.238 44.945 20.342)"/>
      <rect width="3.292" height="3.116" x="44.798" y="13.855" fill="#FFFFFF" transform="rotate(-163.274 46.444 15.413)"/>
      <rect width="2.645" height=".595" x="45.457" y="13.896" fill="#E6E7E8" transform="rotate(-163.238 46.78 14.396)"/>
      <rect width="1.525" height=".595" x="46.298" y="14.877" fill="#E6E7E8" transform="rotate(-163.328 47.06 15.377)"/>
      <path fill="#FFCCA6" d="M40.522,22.589 L41.956,21.038 L42.682,18.89 L43.033,19.216 L44.621,18.637 C44.621,18.637 45.33,18.142 45.586,17.892 C45.982,17.504 46.552,18.152 46.367,18.503 C46.183,18.853 45.694,19.494 45.317,19.515 C45.317,19.515 44.002,20.498 44.075,20.691"/>
      <polyline fill="#414042" points="25.358 17.49 35.296 26.964 41.68 20.564 42.875 24.89 35.18 32.066 24.685 25.81"/>
      <polygon fill="#000000" points="14.021 44.429 27.764 44.257 13.823 46.005" opacity=".2"/>
      <polygon fill="#000000" points="25.321 17.439 23.301 26.941 23.715 27.892" opacity=".2"/>
      <polygon fill="#000000" points="28.977 28.097 27.764 24.91 35.18 32.066" opacity=".2"/>
      <path fill="#000000" d="M48.004,9.068 C48.004,9.068 46.594,8.953 45.999,11.358 C45.999,11.358 45.698,12.819 46.924,13.441 C48.153,14.065 48.004,9.068 48.004,9.068 Z" opacity=".2"/>
      <path fill="#FFCCA6" d="M45.023,22.571 C45.023,22.571 44.1,21.035 44.336,20.78 C44.572,20.526 46.022,19.555 46.061,19.232 L46.194,21.466"/>
      <polyline fill="#FFCCA6" points="42.681 18.89 44.827 17.936 44.725 18.562 42.999 19.492"/>
      <polygon fill="#000000" points="12.122 63.12 13.823 62.773 8.016 76.478 8.016 76.478" opacity=".2"/>
      <polyline fill="#000000" points="24.606 60.572 25.483 60.177 21.759 81.349 21.759 81.349" opacity=".2"/>
      <polygon fill="#000000" points="41.68 20.564 35.296 26.964 42.175 22.351" opacity=".2"/>
      <polyline fill="#000000" points="25.051 60.371 24.104 55.059 23.182 60.864" opacity=".2"/>
      <polyline fill="#333333" points="18.797 25.431 18.692 34.814 26.993 42.664 24.788 46.089 15.125 37.896 14.499 26.644"/>
      <g fill="#FFD6A9" transform="translate(19 36)">
        <path d="M1.936.476C1.936.476 7.506 6.178 7.805 6.478 8.104 6.779 8.443 7.09 9.321 6.849L10.286 6.629C10.286 6.629 10.643 6.413 11.134 6.903L8.317 10.184C8.317 10.184 8.117 10.202 7.354 9.384 6.593 8.563 7.798 8.947.743 3.94M12.54 8.597C12.54 8.597 13.009 9.105 12.483 9.547 12.483 9.547 11.217 11.026 10.682 11.306 10.682 11.306 10.089 11.594 9.721 11.242"/>
        <polyline points="11.133 6.904 12.54 8.597 9.79 11.299 8.11 10.083"/>
        <path d="M10.934,6.794 C10.934,6.794 12.45,7.763 12.763,7.653 C13.077,7.545 12.576,8.667 11.939,8.272"/>
      </g>
      <polyline fill="#414042" points="19.096 24.865 19.416 34.469 27.436 42.234 25.083 45.523 16.332 37.783 14.421 26.179"/>
      <polyline fill="#000000" points="3.582 86.056 30.033 82.764 .411 80.654" opacity=".1"/>
    </g>
    <g fill-rule="nonzero" transform="translate(174 373)">
      <polyline fill="#231F20" points="14.227 81.878 13.791 82.72 14.693 86.638 14.14 88.001 6.42 81.162 7.37 79.636 10.52 77.656"/>
      <polyline fill="#414042" points="29.146 46.767 25.153 65.718 14.725 82.33 9.379 78.216 16.639 63.047 14.548 47.214"/>
      <path fill="#D1B97D" d="M28.889,19.557 C28.91,19.917 32.368,47.911 32.368,47.911 L15.692,50.245 C15.692,50.245 17.321,27.443 20.699,19.503 C21.168,19.233 28.328,18.813 28.328,18.813"/>
      <polyline fill="#D1B97D" points="26.603 51.349 19.862 53.433 21.565 58.688 28.6 57.21 29.079 51.349"/>
      <polygon fill="#000000" points="14.383 50.001 17.002 49.697 16.311 60.847" opacity=".2"/>
      <polyline fill="#000000" points=".813 89.57 35.627 88.011 6.053 84.267" opacity=".1"/>
      <g fill="#7C573E" transform="translate(39 36)">
        <path d="M1.036.542C1.036.542 8.224 5.8 8.606 6.076 8.992 6.35 9.423 6.634 10.346 6.208L11.366 5.788C11.366 5.788 11.721 5.481 12.352 5.934L9.852 10.068C9.852 10.068 9.635 10.124 8.641 9.361 7.651 8.599 9.052 8.8.356 4.578M14.212 7.544C14.212 7.544 14.819 8.014 14.322 8.598 14.322 8.598 13.203 10.456 12.662 10.868 12.662 10.868 12.064 11.293 11.593 10.972"/>
        <polyline points="12.352 5.934 14.212 7.544 11.68 11.024 9.604 9.994"/>
        <path d="M12.112,5.849 C12.112,5.849 13.958,6.64 14.286,6.46 C14.614,6.284 14.266,7.608 13.489,7.294"/>
      </g>
      <polygon fill="#000000" points="51.891 43.659 52.707 43.875 50.223 42.746 47.641 45.361 48.409 45.822 48.965 44.658 49.624 43.857 50.268 43.27" opacity=".1"/>
      <polyline fill="#414042" points="30.842 46.609 35.503 62.556 31.698 85.273 25.461 82.71 27.039 64.123 16.133 46.664"/>
      <polyline fill="#000000" points="27.039 64.123 25.879 62.266 26.502 58.189 28.134 62.433 26.33 83.068 25.461 82.71 27.024 64.365" opacity=".2"/>
      <polyline fill="#FFFFFF" points="30.545 63.273 38.083 64.443 34.059 37.515 29.116 19.093"/>
      <polyline fill="#231F20" points="31.27 83.996 31.418 84.931 34.469 87.55 34.831 88.975 24.555 88.046 24.417 86.254 25.782 82.793"/>
      <polyline fill="#FFFFFF" points="32.368 20.536 37.285 34.208 47.782 41.668 44.836 45.631 34.642 40.192 28.328 18.585"/>
      <g transform="translate(37 32)">
        <rect width="11.309" height="16.086" x="3.18" y="1.964" fill="#D1B97D" transform="rotate(-152.192 8.834 10.007)"/>
        <rect width="9.377" height="14.03" x="4.155" y="2.971" fill="#FFFFFF" transform="rotate(-152.179 8.844 9.985)"/>
        <path fill="#8E8E8E" d="M10.497,1.302 L10.229,1.808 L9.561,3.074 L14.12,5.479 L14.789,4.214 L15.056,3.706 L13.789,3.038 C14.11,2.429 13.923,1.813 13.311,1.489 C12.7,1.169 12.084,1.358 11.764,1.969 L10.497,1.302 Z M12.393,2.307 C12.504,2.096 12.764,2.014 12.977,2.124 C13.185,2.233 13.266,2.495 13.153,2.706 C13.045,2.915 12.786,2.994 12.575,2.884 C12.366,2.773 12.285,2.515 12.393,2.307 Z"/>
        <rect width="5.154" height=".807" x="9.521" y="3.341" fill="#E6E7E8" transform="rotate(-152.179 12.098 3.84)"/>
        <rect width="3.99" height=".413" x="7.642" y="4.813" fill="#E6E7E8" transform="rotate(-152.192 9.637 5.313)"/>
        <rect width="3.989" height=".412" x="6.314" y="7.516" fill="#E6E7E8" transform="rotate(-152.187 8.308 8.016)"/>
        <rect width="3.991" height=".411" x="4.896" y="10.054" fill="#E6E7E8" transform="rotate(-152.2 6.892 10.554)"/>
        <rect width=".833" height="2.257" x="12.515" y="6.292" fill="#EC174F" transform="rotate(158.124 13.015 7.42)"/>
        <rect width=".835" height="2.26" x="12.55" y="6.181" fill="#EC174F" transform="rotate(-111.704 13.05 7.31)"/>
        <rect width=".833" height="2.258" x="11.183" y="8.892" fill="#EC174F" transform="rotate(158.099 11.683 10.021)"/>
        <rect width=".834" height="2.258" x="11.241" y="8.763" fill="#EC174F" transform="rotate(-111.85 11.741 9.892)"/>
        <rect width=".834" height="2.26" x="9.805" y="11.507" fill="#EC174F" transform="rotate(158.273 10.305 12.637)"/>
        <rect width=".836" height="2.259" x="9.865" y="11.417" fill="#EC174F" transform="rotate(-111.889 10.365 12.546)"/>
      </g>
      <path fill="#FFFFFF" d="M21.398,20.199 C21.346,17.924 20.491,17.484 33.477,68.06 L20.051,66.97 L12.256,66.829 C12.256,66.829 13.764,43.513 17.609,20.341 C18.108,20.024 26.975,17.759 26.975,17.759"/>
      <polyline fill="#E6E7E8" points="22.663 30.087 19.891 41.378 30.545 41.746 27.1 47.242 25.876 47.569 15.538 44.818 17.102 30.219"/>
      <rect width="8.57" height="8.57" x="19.043" y="55.552" fill="#F5F6F7" transform="rotate(175.831 23.328 59.837)"/>
      <g fill="#7C573E" transform="translate(20 39)">
        <path d="M.059.054C.059.054 10.137 3.783 10.673 3.976 11.209 4.169 11.803 4.355 12.732 3.554L13.778 2.727C13.778 2.727 14.091 2.256 14.971 2.572L13.436 8.198C13.436 8.198 13.202 8.335 11.797 7.777 10.396 7.219 12.09 6.988.602 4.964M17.665 3.826C17.665 3.826 18.525 4.173 18.14 5.014 18.14 5.014 17.454 7.544 16.964 8.198 16.964 8.198 16.409 8.889 15.755 8.673"/>
        <polyline points="14.717 3.329 17.596 4.01 15.874 8.701 13.122 8.191"/>
      </g>
      <polyline fill="#FFFFFF" points="23.19 29.497 22.206 39.49 30.482 41.708 25.876 47.569 17.509 43.119 17.127 29.623"/>
      <path fill="#3F2C19" d="M17.609,10.214 C17.609,10.214 18.426,14.675 20.094,16.372 C20.286,16.372 22.009,16.63 22.009,16.63 C22.009,16.63 23.044,12.846 22.967,12.592 C22.889,12.334 22.006,9.724 21.836,9.479"/>
      <polyline fill="#FFFFFF" points="28.889 19.557 26.5 26.39 20.745 20.148 21.825 18.715 28.328 18.585"/>
      <polygon fill="#7C573E" points="21.851 19.621 28.328 18.813 27.694 12.298 21.583 13.144"/>
      <polygon fill="#000000" points="21.851 19.621 21.684 15.898 25.342 16.971" opacity=".1"/>
      <polyline fill="#2E72E8" points="26.333 21.163 27.399 22.166 26.586 23.06 27.187 24.498 26.5 26.39 25.09 24.826 25.51 23.263 24.571 22.273 25.131 21.163"/>
      <path fill="#7C573E" d="M28.328 18.813C28.328 18.813 26.922 23.513 21.851 19.621M18.072 9.353C18.335 13.862 21.58 17.337 25.321 17.121 29.059 16.9 31.878 13.068 31.613 8.559 31.35 4.054 28.104.578 24.364.796 20.624 1.014 17.807 4.847 18.072 9.353z"/>
      <circle cx="18.645" cy="9.065" r="1.758" fill="#7C573E"/>
      <path fill="#3F2C19" d="M20.1,9.479 C20.1,9.479 19.612,8.296 20.085,6.878 C20.085,6.878 21.69,2.145 25.041,5.79 C25.041,5.79 26.064,6.481 27.581,5.387 C27.581,5.387 30.03,3.805 28.889,1.314 C28.889,1.314 25.804,-1.512 22.625,1.177 C22.625,1.177 18.052,1.777 17.713,7.573 L18.284,7.417 L18.523,9.263 L20.1,9.479 Z"/>
      <path fill="#3F2C19" d="M28.889,3.572 C28.889,3.572 30.988,4.877 31.077,7.785 L31.633,7.526 C31.633,7.526 32.075,3.529 28.89,2.097"/>
      <polyline fill="#000000" points="14.758 66.976 9.379 78.216 10.051 78.734 17.668 66.927" opacity=".2"/>
      <path fill="#7C573E" d="M51.413,43.544 C51.413,43.544 50.241,42.876 49.812,43.687 L49.029,45.186 C49.029,45.186 48.475,46.255 49.93,46.583"/>
    </g>
    <g fill-rule="nonzero" transform="translate(309 327)">
      <path fill="#7C573E" d="M7.676,11.22 C7.676,11.22 8.364,14.594 9.766,15.88 C9.926,15.88 11.373,16.073 11.373,16.073 C11.373,16.073 12.242,13.21 12.176,13.016 C12.113,12.823 11.369,10.848 11.227,10.662"/>
      <g fill="#FCDDCD" transform="translate(22 33)">
        <path d="M.934.46C.934.46 7.303 5.731 7.645 6.007 7.985 6.285 8.371 6.57 9.249 6.227L10.216 5.894C10.216 5.894 10.566 5.629 11.124 6.083L8.579 9.775C8.579 9.775 8.372 9.815 7.497 9.055 6.62 8.293 7.907 8.555.081 4.162M12.758 7.679C12.758 7.679 13.297 8.148 12.803 8.661 12.803 8.661 11.662 10.323 11.139 10.673 11.139 10.673 10.56 11.034 10.141 10.71"/>
        <polyline points="11.124 6.083 12.758 7.679 10.219 10.763 8.35 9.695"/>
        <path d="M10.907,5.994 C10.907,5.994 12.573,6.828 12.886,6.678 C13.199,6.533 12.805,7.746 12.103,7.408"/>
      </g>
      <polygon fill="#000000" points="33.528 40.712 34.272 40.958 32.033 39.773 29.497 42.056 30.18 42.525 30.762 41.474 31.417 40.771 32.046 40.263" opacity=".1"/>
      <polyline fill="#231F20" points="9.056 79.729 9.195 80.544 11.881 82.808 12.211 84.048 3.227 83.328 3.09 81.763 4.25 78.726"/>
      <polyline fill="#F4F4F4" points="9.397 59.671 20.926 60.257 21.15 36.706 17.511 18.544"/>
      <polyline fill="#F4F4F4" points="20.44 19.304 21.743 31.396 31.059 38.89 28.11 42.401 18.963 36.796 14.098 16.165"/>
      <polyline fill="#231F20" points="22.718 78.412 23.143 79.124 26.467 80.255 27.225 81.292 18.591 83.88 17.897 82.471 17.877 79.221"/>
      <polyline fill="#F4F4F4" points="18.083 17.97 13.849 18.291 15.162 38.539 17.591 40.978 18.534 41.016"/>
      <polyline fill="#D1B97D" points="13.514 54.9 11.367 66.748 9.711 81.047 3.52 80.679 5.018 65.246 4.727 53.28"/>
      <polyline fill="#D1B97D" points="15.877 48.917 25.144 59.128 23.649 79.486 17.862 80.148 17.096 63.378 10.442 54.117"/>
      <polyline fill="#DDDDDD" points="20.967 54.525 19.019 38.359 17.708 38.786 17.694 45.198 18.758 52.023"/>
      <path fill="#F4F4F4" d="M12.842,16.185 C12.826,16.614 20.781,64.187 20.781,64.187 L8.4,62.435 L2.42,63.588 C2.42,63.588 4.041,39.421 8.883,18.155 C9.363,17.887 17.737,18.585 17.737,18.585"/>
      <path fill="#8E8E8E" d="M11.397,18.199 L17.694,45.198 L17.758,18.031 C17.758,18.031 12.336,18.237 11.397,18.199 Z"/>
      <polyline fill="#DDDDDD" points="12.237 28.285 11.219 39.032 21.056 37.927 18.637 43.442 17.557 43.908 7.688 42.781 7.147 29.158"/>
      <path fill="#000000" d="M0.367,1.202 C4.946,4.713 6.761,0.996 6.761,0.996" opacity=".2" transform="translate(11 17)"/>
      <polygon fill="#414042" points="37.346 31.281 27.704 28.945 23.252 45.198 31.883 46.441"/>
      <rect width="7.956" height="7.958" x="7.198" y="50.761" fill="#DDDDDD" transform="rotate(179.238 11.176 54.74)"/>
      <polyline fill="#000000" points="12.054 62.953 9.715 81.003 8.805 80.668 8.401 62.435" opacity=".2"/>
      <polyline fill="#000000" points="17.76 17.996 17.694 37.514 16.01 37.32" opacity=".2"/>
      <path fill="#FCDDCD" d="M11.42,12.91 L17.09,12.043 L17.838,18.012 L17.749,18.015 C17.634,18.205 15.848,21.003 11.396,18.2 L11.42,12.91 Z"/>
      <polyline fill="#000000" points="19.34 64.597 18.786 80.041 17.862 80.148 17.17 65" opacity=".2"/>
      <polygon fill="#000000" points="14.579 15.639 11.413 14.808 11.397 18.199" opacity=".1"/>
      <ellipse cx="14.584" cy="9.768" fill="#FCDDCD" transform="rotate(175.71 14.584 9.768)" rx="6.009" ry="6.725"/>
      <circle cx="8.937" cy="9.844" r="1.614" fill="#FCDDCD"/>
      <g fill="#FCDDCD" transform="translate(11 36)">
        <path d="M.061.875C.061.875 9.821 2.936 10.34 3.038 10.859 3.144 11.432 3.232 12.174 2.37L13.025 1.474C13.025 1.474 13.246.998 14.099 1.166L13.45 6.541C13.45 6.541 13.253 6.699 11.888 6.378 10.526 6.055 12.048 5.615 1.223 5.311M16.741 1.955C16.741 1.955 17.579 2.155 17.341 2.981 17.341 2.981 17.054 5.396 16.691 6.062 16.691 6.062 16.275 6.774 15.644 6.664"/>
        <polyline points="13.968 1.897 16.704 2.134 15.756 6.675 13.162 6.58"/>
      </g>
      <polyline fill="#F4F4F4" points="12.64 27.67 13.09 36.982 20.993 37.898 17.557 43.908 9.271 40.955 7.09 28.607"/>
      <path fill="#7C573E" d="M19.999,6.427 C19.895,6.152 21.234,3.044 17.97,1.183 C14.9,-0.516 7.472,-1.036 8.219,8.347 C8.29,7.811 10.412,9.759 10.412,9.759 L11.41,6.427"/>
      <polyline fill="#000000" points="6.405 87.96 25.266 84.524 .954 81.173" opacity=".1"/>
    </g>
    <g transform="translate(16)">
      <path fill="#303030" fill-rule="nonzero" d="M269.124,344.996 C269.124,344.996 265.049,329.685 254.612,350.778 C254.612,350.778 246.788,372.291 244.635,372.439 C242.483,372.585 244.596,373.05 244.596,373.05 C244.596,373.05 251.184,373.571 256.217,366.839"/>
      <polyline fill="#231F20" fill-rule="nonzero" points="275.322 474.88 275.385 476.248 279.549 480.627 279.851 482.736 264.455 479.212 264.556 476.632 267.219 471.996"/>
      <polyline fill="#FCA488" fill-rule="nonzero" points="271.622 412.409 278.728 442.433 276.053 476.748 265.462 472.964 264.079 442.148 260.996 434.88"/>
      <polygon fill="#000000" fill-rule="nonzero" points="261.375 435.775 262.603 433.844 265.713 442.391 265.462 472.964 264.06 442.152" opacity=".2"/>
      <polyline fill="#FFCCA6" fill-rule="nonzero" points="271.59 393.657 277.383 403.544 291.412 414.943 292.682 411.515 282.908 398.456 279.668 388.142"/>
      <polyline fill="#231F20" fill-rule="nonzero" points="239.13 471.705 238.381 472.877 239.241 478.88 238.253 480.808 227.633 469.187 229.231 467.091 234.148 464.728"/>
      <polyline fill="#FCA488" fill-rule="nonzero" points="270.213 416.701 260.042 445.83 240.125 472.242 231.35 464.994 247.848 437.706 246.204 422.293"/>
      <path fill="#FCA488" fill-rule="nonzero" d="M272.483,377.361 C272.469,377.965 275.337,427.007 275.337,427.007 L243.937,426.483 C243.937,426.483 250.941,388.819 258.881,376.169 C259.693,375.786 271.653,376.05 271.653,376.05"/>
      <polyline fill="#FFFFFF" fill-rule="nonzero" points="271.516 376.687 268.239 387.929 259.745 376.435"/>
      <polyline fill="#FFCCA6" fill-rule="nonzero" points="245.897 393.716 243.189 404.853 248.499 424.351 252.546 422.275 250.696 405.033 255.536 395.368"/>
      <circle cx="257.354" cy="359.743" r="2.932" fill="#FFCCA6" fill-rule="nonzero"/>
      <polygon fill="#000000" fill-rule="nonzero" points="244.93 426.379 274.707 426.996 245.133 428.263" opacity=".2"/>
      <polygon fill="#FCA488" fill-rule="nonzero" points="245.149 394.177 251.569 380.568 259.674 376.052 255.116 399.457"/>
      <polyline fill="#FCA488" fill-rule="nonzero" points="275.637 378.031 282.611 390.769 276.075 401.344 271.717 396.325 271.653 376.048"/>
      <polyline fill="#414042" fill-rule="nonzero" points="258.355 376.787 268.803 391.835 273.301 376.833 272.126 376.301 268.378 388.791 259.256 376.091" opacity=".2"/>
      <g fill="#72E3E8" fill-rule="nonzero" transform="translate(245 410)">
        <path d="M6.303.694C6.303.694 7.326 10.781 7.432 11.624 7.538 12.467 7.694 13.383 9.384 14.075L11.184 14.908C11.184 14.908 12.022 15.006 12.197 16.39L3.69 18.141C3.69 18.141 3.348 17.923 3.142 15.685 2.938 13.445 5.475 19.664.416 3.037M12.346 20.809C12.346 20.809 12.469 22.188 11.09 22.246 11.09 22.246 7.266 23.04 6.068 22.83 6.068 22.83 4.774 22.56 4.622 21.543"/>
        <polyline points="12.197 16.39 12.346 20.809 4.663 21.72 3.483 17.723"/>
        <path d="M12.012,15.97 C12.012,15.97 13.228,19.368 13.862,19.582 C14.497,19.798 12.325,20.964 11.792,19.553"/>
      </g>
      <polygon fill="#000000" fill-rule="nonzero" points="257.192 395.39 255.116 399.457 253.831 398.776 250.696 405.033 252.146 418.542 253.358 407.726" opacity=".2"/>
      <polyline fill="#000000" fill-rule="nonzero" points="246.155 415.749 243.936 426.482 248.227 426.447 249.143 422.741" opacity=".2"/>
      <polygon fill="#000000" fill-rule="nonzero" points="247.848 437.706 233.809 467.027 231.35 464.994" opacity=".2"/>
      <polygon fill="#FFCCA6" fill-rule="nonzero" points="260.776 376.519 271.653 376.048 271.479 365.136 261.206 365.716"/>
      <polygon fill="#000000" fill-rule="nonzero" points="260.776 376.519 261.018 370.443 267.456 371.025" opacity=".1"/>
      <ellipse cx="267.564" cy="360.643" fill="#FFCCA6" fill-rule="nonzero" transform="rotate(-178.711 267.564 360.643)" rx="10.911" ry="12.215"/>
      <path fill="#FFCCA6" fill-rule="nonzero" d="M271.653,376.048 C271.653,376.048 268.68,383.67 260.776,376.519"/>
      <path fill="#414042" fill-rule="nonzero" d="M279.694,356.759 C279.53,356.271 280.735,350.898 274.627,347.181 C268.87,343.776 254.452,341.706 254.601,357.945 C254.814,357.038 258.685,360.718 258.685,360.718 L261.078,354.159"/>
      <g fill="#72E3E8" fill-rule="nonzero" transform="translate(283 403)">
        <path d="M3.82.411C3.82.411 9.624 8.113 10.049 8.689 10.477 9.267 10.969 9.877 12.505 9.689L14.174 9.557C14.174 9.557 14.832 9.282 15.534 10.229L9.989 15.044C9.989 15.044 9.648 15.023 8.568 13.458 7.49 11.893 10.892 15.499.282 5.337M17.474 13.427C17.474 13.427 18.136 14.39 17.143 15.003 17.143 15.003 14.654 17.171 13.684 17.513 13.684 17.513 12.62 17.849 12.084 17.164"/>
        <polyline points="15.535 10.229 17.474 13.427 12.188 17.279 9.664 14.82"/>
        <path d="M15.227,9.996 C15.227,9.996 17.528,11.999 18.085,11.894 C18.64,11.79 17.522,13.548 16.545,12.728"/>
      </g>
      <polygon fill="#000000" fill-rule="nonzero" points="298.924 416.365 300.001 417.061 296.936 414.267 291.981 416.847 292.877 417.872 294.225 416.446 295.549 415.595 296.756 415.048" opacity=".2"/>
      <polygon fill="#72E3E8" fill-rule="nonzero" points="275.981 363.875 264.76 362.556 262.641 372.548 274.881 372.107"/>
      <path stroke="#72E3E8" stroke-width=".5" d="M264.76 362.556L258.684 360.718M262.641 372.548L260.088 369.574M275.981 363.875L278.301 362.701"/>
      <polygon fill="#000000" fill-rule="nonzero" points="261.018 370.443 264.654 362.861 262.786 371.871" opacity=".1"/>
      <polyline fill="#000000" fill-rule="nonzero" points="234.215 484.382 279.11 480.665 228.627 472.767" opacity=".1"/>
    </g>
    <g fill-rule="nonzero" transform="translate(371 299)">
      <polyline fill="#231F20" points="42.027 138.091 42.13 139.617 46.644 144.271 47.017 146.614 30.655 143.617 30.694 140.716 33.391 135.358"/>
      <polyline fill="#953D33" points="46.821 77.99 51.969 104.283 42.53 140.207 32.887 135.177 38.147 105.561 23.19 75.925"/>
      <polyline fill="#231F20" points="14.969 132.197 14.147 133.484 15.022 139.908 13.935 142.015 2.536 129.902 4.286 127.59 9.635 124.873"/>
      <polyline fill="#953D33" points="44.071 77.998 34.881 107.846 15.704 132.993 7.721 125.607 21.603 102.31 17.027 76.578"/>
      <polyline fill="#000000" points="38.147 105.561 36.555 102.409 38.156 95.955 40.152 103.005 34.233 135.878 32.887 135.177 38.086 105.947" opacity=".2"/>
      <polygon fill="#000000" points="17.62 79.9 23.338 79.698 21.616 102.3" opacity=".2"/>
      <g fill="#DDB397" transform="translate(33 52)">
        <path d="M1.166.082C1.166.082 13.085 8.805 13.722 9.26 14.358 9.716 15.076 10.185 16.606 9.477L18.296 8.78C18.296 8.78 18.888 8.274 19.934 9.022L15.787 15.879C15.787 15.879 15.426 15.972 13.781 14.708 12.136 13.443 14.461 13.775.039 6.773M23.018 11.693C23.018 11.693 24.028 12.473 23.202 13.441 23.202 13.441 21.345 16.527 20.45 17.206 20.45 17.206 19.457 17.913 18.673 17.38"/>
        <polyline points="19.933 9.021 23.018 11.693 18.818 17.463 15.373 15.755"/>
        <path d="M19.536,8.882 C19.536,8.882 22.597,10.193 23.139,9.896 C23.682,9.603 23.109,11.804 21.82,11.28"/>
      </g>
      <polygon fill="#000000" points="54.012 63.692 55.364 64.052 51.246 62.177 46.963 66.517 48.236 67.281 49.159 65.347 50.25 64.02 51.321 63.05" opacity=".1"/>
      <path fill="#2E72E8" d="M29.899,28.023 C29.899,28.023 21.905,28.812 21.575,29.138 C21.245,29.464 18.471,30.644 18.089,33.266 C17.704,35.888 17.601,58.683 19.226,64.196 L32.255,55.551 L29.478,29.138"/>
      <path fill="#282728" d="M23.333,16.722 C23.333,16.722 24.604,22.964 27.194,25.34 C27.492,25.34 30.17,25.696 30.17,25.696 C30.17,25.696 31.776,20.403 31.655,20.046 C31.538,19.689 30.163,16.036 29.899,15.692"/>
      <path fill="#F4F4F4" d="M41.447,29.333 C41.481,29.901 47.483,78.839 47.483,78.839 L16.721,79.933 C16.721,79.933 18.088,52.143 28.084,30.226 C28.82,29.801 40.104,29.138 40.104,29.138"/>
      <ellipse cx="35.074" cy="14.907" fill="#C6A38B" transform="rotate(176.652 35.074 14.907)" rx="10.311" ry="11.542"/>
      <circle cx="25.393" cy="14.875" r="2.77" fill="#C6A38B"/>
      <path fill="#C6A38B" d="M39.106,18.875 L40.104,29.139 C40.104,29.139 37.465,36.348 29.477,30.217 L29.477,20.205 L39.106,18.875 Z"/>
      <path fill="#282728" d="M44.448,10.267 C44.258,9.818 46.735,4.758 40.698,1.724 C35.018,-1.042 21.28,-1.887 22.662,13.392 C22.794,12.522 26.72,15.692 26.72,15.692 L28.564,10.267"/>
      <path fill="#282728" d="M44.721,5.829 C44.721,5.829 45.957,12.601 45.789,12.605 C45.621,12.609 43.057,11.096 43.057,11.096 C43.057,11.096 43.686,12.442 43.057,12.062 C42.425,11.684 39.777,10.507 39.777,10.507 C39.777,10.507 40.45,12.525 39.777,12.189 C39.104,11.853 35.066,10.212 35.066,10.212 C35.066,10.212 36.749,12.189 36.077,11.978 C35.405,11.769 30.653,10.128 30.694,10.254 C30.735,10.38 31.917,11.895 31.662,11.853 C31.409,11.81 25.606,9.792 25.606,9.792 C25.606,9.792 25.059,7.688 25.606,7.121 C26.153,6.554 29.138,5.985 30.358,5.828"/>
      <polyline fill="#000000" points="18.886 61.917 18.509 64.196 29.741 74.824 22.866 62.447" opacity=".2"/>
      <polyline fill="#DDB397" points="14.942 41.815 12.024 54.343 25.048 68.717 27.608 65.179 18.526 51.234 23.202 45.226"/>
      <polyline fill="#F4F4F4" points="28.973 30.035 21.932 31.644 12.854 44.081 22.948 48.931"/>
      <path fill="#414042" d="M28.592,30.035 L33.434,60.646 C23.996,66.447 19.817,62.383 19.817,62.383 L19.548,61.733 C25.422,64.834 28.973,61.319 28.973,61.319 L24.018,31.168"/>
      <polyline fill="#414042" points="43.807 60.401 43.807 60.5 46.167 60.401 44.397 29.777 41.456 29.428"/>
      <g fill="#DDB397" transform="translate(14 51)">
        <path d="M4.275.193C4.275.193 12.77 12.999 13.227 13.672 13.684 14.347 14.215 15.064 15.965 14.921L17.865 14.851C17.865 14.851 18.623 14.57 19.377 15.677L12.859 20.876C12.859 20.876 12.472 20.837 11.321 19.012 10.174 17.185 12.321 18.346.761 6.32M21.426 19.394C21.426 19.394 22.131 20.519 20.977 21.169 20.977 21.169 18.05 23.512 16.934 23.853 16.934 23.853 15.709 24.185 15.136 23.382"/>
        <polyline points="19.377 15.677 21.426 19.394 15.249 23.515 12.5 20.609"/>
        <path d="M19.038,15.4 C19.038,15.4 21.555,17.778 22.19,17.685 C22.827,17.593 21.475,19.538 20.407,18.561"/>
      </g>
      <polyline fill="#000000" points="24.018 31.167 27.135 62.447 28.973 61.319" opacity=".2"/>
      <polyline fill="#000000" points=".16 143.856 45.335 146.128 7.084 137.701" opacity=".1"/>
      <polygon fill="#000000" points="29.507 30.149 29.477 25.541 33.738 25.885" opacity=".2"/>
    </g>
    <g fill-rule="nonzero" transform="translate(488 256)">
      <polyline fill="#8E8E8E" points="68.208 42.022 72.489 63.857 92.748 85.028 87.258 93.691 63.343 75.187 53.459 40.243"/>
      <polygon fill="#F9F3E5" points="80.627 77.179 80.627 77.179 89.428 74.4 89.428 74.4 87.823 69.318 87.823 69.318 79.022 72.097 79.022 72.097"/>
      <path fill="#F9F3E5" d="M58.405,109.825 C58.735,110.874 59.854,111.455 60.903,111.125 L99.378,98.967 C100.427,98.637 101.007,97.519 100.676,96.471 L93.111,72.529 C92.781,71.481 91.662,70.899 90.615,71.231 L52.138,83.387 C51.092,83.719 50.511,84.835 50.841,85.881 L58.405,109.825 Z"/>
      <g transform="translate(53 73)">
        <rect width="25.887" height="31.547" x="12.666" y="2.039" fill="#953D33" transform="rotate(-108.821 25.61 17.813)"/>
        <rect width="22.91" height="31.553" x="12.77" y="2.819" fill="#FFFFFF" transform="rotate(-108.814 24.225 18.595)"/>
        <rect width="25.774" height="31.55" x="9.931" y="2.869" fill="#953D33" transform="rotate(-108.821 22.818 18.643)"/>
        <rect width="25.889" height="31.55" x="9.334" y="1.933" fill="#414042" transform="rotate(-103.574 22.278 17.708)"/>
        <rect width="22.905" height="31.546" x="9.316" y="2.664" fill="#FFFFFF" transform="rotate(-103.58 20.769 18.437)"/>
        <rect width="25.775" height="31.552" x="5.549" y="3.774" fill="#414042" transform="rotate(-103.568 18.437 19.55)"/>
      </g>
      <path fill="#FFFFFF" d="M40.817,22.848 C40.817,22.848 42.584,32.475 46.183,36.139 C46.595,36.139 50.313,36.691 50.313,36.691 C50.313,36.691 52.545,28.527 52.379,27.977 C52.214,27.424 50.305,21.792 49.938,21.261"/>
      <polyline fill="#231F20" points="65.405 180.314 65.543 182.355 71.583 188.583 72.083 191.718 50.186 187.708 50.239 183.826 53.848 176.656"/>
      <polyline fill="#D1B97D" points="71.821 99.883 78.709 135.07 66.078 183.144 53.174 176.414 60.211 136.781 40.197 97.12"/>
      <polyline fill="#231F20" points="29.194 172.423 28.094 174.148 29.266 182.745 27.812 185.565 12.555 169.353 14.898 166.261 22.057 162.623"/>
      <polyline fill="#D1B97D" points="68.14 99.894 55.842 139.838 30.178 173.491 19.496 163.606 38.073 132.429 31.95 97.994"/>
      <path fill="#8E8E8E" d="M65.159,43.009 C65.205,43.786 72.665,104.198 72.665,104.198 L32.549,108.86 C32.549,108.86 20.954,53.397 47.487,42.893 C48.496,42.311 63.95,41.403 63.95,41.403"/>
      <polyline fill="#FFFFFF" points="65.159 43.009 60.004 57.754 47.583 44.281 49.915 41.195 63.95 40.916"/>
      <path fill="#FCD1B4" d="M62.583,27.345 L63.949,41.404 C63.949,41.404 60.914,51.545 49.97,43.148 L49.392,29.169 L62.583,27.345 Z"/>
      <polygon fill="#000000" points="49.971 43.148 49.61 35.111 57.506 37.43" opacity=".1"/>
      <polyline fill="#EC174F" points="59.643 46.476 61.946 48.639 60.193 50.568 61.489 53.668 60.004 57.754 56.96 54.38 57.869 51.006 55.842 48.87 57.049 46.476"/>
      <ellipse cx="56.415" cy="20.143" fill="#FCD1B4" transform="rotate(176.646 56.415 20.143)" rx="14.637" ry="17.643"/>
      <circle cx="43.051" cy="20.368" r="3.794" fill="#FCD1B4"/>
      <path fill="#EFEFEF" d="M46.196,21.261 C46.196,21.261 45.139,18.705 46.161,15.648 C46.161,15.648 49.626,5.432 56.856,13.304 C56.856,13.304 59.069,14.796 62.338,12.429 C62.338,12.429 67.625,9.015 65.158,3.642 C65.158,3.642 58.502,-2.46 51.637,3.347 C51.637,3.347 41.776,4.64 41.042,17.148 L42.273,16.81 L42.79,20.794 L46.196,21.261 Z"/>
      <path fill="#EFEFEF" d="M65.159,8.515 C65.159,8.515 69.69,11.328 69.878,17.607 L71.077,17.044 C71.077,17.044 72.034,8.421 65.159,5.329"/>
      <g fill="#FCD1B4" transform="translate(36 87)">
        <path d="M7.282.111C7.282.111 15.186 20.06 15.616 21.113 16.044 22.168 16.563 23.299 18.993 23.613L21.612 24.066C21.612 24.066 22.731 23.899 23.436 25.629L13.03 30.852C13.03 30.852 12.514 30.685 11.469 27.858 10.428 25.032 13.026 27.24.713 7.465M25.161 31.302C25.161 31.302 25.8 33.044 24.036 33.595 24.036 33.595 19.361 35.95 17.737 36.093 17.737 36.093 15.967 36.191 15.417 34.93"/>
        <polyline points="23.436 25.628 25.161 31.302 15.532 35.146 12.618 30.377"/>
        <path d="M23.054,25.151 C23.054,25.151 25.805,29.13 26.7,29.187 C27.595,29.244 25.187,31.51 24.008,29.866"/>
      </g>
      <polyline fill="#000000" points="22.124 6.125 15.884 26.874 24.245 50.917 16.038 56.749 .08 34.526 9.743 .927" opacity=".2" transform="translate(31 58)"/>
      <polyline fill="#8E8E8E" points="53.823 63.478 47.581 84.225 55.943 108.269 47.038 114.749 35.415 91.486 41.442 58.28"/>
      <polyline fill="#D1B97D" points="60.223 111.615 45.679 116.115 49.352 127.455 64.536 124.269 65.567 111.615"/>
      <polyline fill="#000000" points="60.211 136.781 58.083 132.561 60.223 123.925 62.895 133.36 54.975 177.353 53.174 176.414 60.13 137.296" opacity=".2"/>
      <polygon fill="#000000" points="33.855 108.708 39.51 108.052 38.016 132.113" opacity=".2"/>
      <polyline fill="#000000" points="59.054 111.977 45.981 116.021 46.342 117.73" opacity=".2"/>
      <polyline fill="#000000" points=".873 199.866 73.983 189.8 13.262 180.258" opacity=".1"/>
    </g>
    <g fill-rule="nonzero" transform="translate(328 322)">
      <g fill="#7C573E" transform="translate(50 79)">
        <path d="M3.821.673C3.821.673 15 15.146 15.6 15.908 16.2 16.671 16.891 17.473 18.955 17.155L21.207 16.909C21.207 16.909 22.084 16.51 23.07 17.759L15.781 24.492C15.781 24.492 15.318 24.479 13.797 22.407 12.274 20.339 14.925 21.532.174 8.245M25.822 22C25.822 22 26.756 23.275 25.44 24.143 25.44 24.143 22.169 27.175 20.874 27.674 20.874 27.674 19.448 28.174 18.699 27.27"/>
        <polyline points="23.071 17.759 25.822 22 18.844 27.417 15.331 24.204"/>
        <path d="M22.645,17.46 C22.645,17.46 25.835,20.07 26.584,19.902 C27.329,19.741 25.894,22.161 24.539,21.094"/>
      </g>
      <polygon fill="#000000" points="73.154 100.474 74.637 101.368 70.379 97.72 63.797 101.408 65.047 102.757 66.811 100.773 68.564 99.57 70.172 98.783" opacity=".1"/>
      <polyline fill="#231F20" points="68.377 159.425 69.838 160.681 78.36 160.669 80.809 162.402 62.277 174.75 59.729 172.142 57.566 164.919"/>
      <polyline fill="#414042" points="42.966 47.674 52.104 77.468 66.733 95.097 61.91 100.056 39.193 79.329 30.905 56.357"/>
      <path fill="#3F2C19" d="M18.362,30.521 C18.362,30.521 19.909,38.314 23.335,41.242 C23.715,41.226 27.158,41.567 27.158,41.567 C27.158,41.567 28.98,34.716 28.809,34.265 C28.641,33.812 26.721,29.197 26.368,28.767"/>
      <polyline fill="#231F20" points="20.114 169.942 20.456 171.833 26.945 177.117 27.749 179.997 6.096 178.15 5.754 174.529 8.53 167.529"/>
      <polyline fill="#2E72E8" points="29.723 100.056 31.573 137.364 21.321 171.785 6.881 170.708 14.196 133.798 12.127 124.467"/>
      <polyline fill="#2E72E8" points="25.5 97.552 52.089 123.789 70.745 160.693 57.592 165.602 36.874 132.912 29.043 127.435"/>
      <polygon fill="#000000" points="12.725 160.97 8.915 160.449 6.881 170.708 9.223 170.883" opacity=".2"/>
      <path fill="#414042" d="M17.993 139.16L17.799 89.5M42.625 105.601L32.995 141.732"/>
      <polygon fill="#E5E5E5" points="43.414 91.46 56.621 108.009 82.958 89.378 67.722 71.146"/>
      <rect width="23.762" height="31.682" x="53.311" y="75.644" fill="#F4F4F4" transform="rotate(-129.783 65.192 91.485)"/>
      <polygon fill="#FFFFFF" points="43.293 94.765 59.796 110.136 82.608 90.007 66.173 72.851"/>
      <path fill="#414042" d="M44.346,48.435 C44.414,49.162 52.86,121.321 52.86,121.321 L14.215,127.096 C14.215,127.096 7.897,78.867 22.344,47.776 C23.268,47.203 40.032,45.533 40.032,45.533"/>
      <polygon fill="#7C573E" points="26.512 47.125 39.249 46.066 38.631 32.875 26.604 34.04"/>
      <polygon fill="#000000" points="26.646 47.136 26.595 39.515 33.641 40.085" opacity=".2"/>
      <path fill="#7C573E" d="M20.584,27.982 C21.244,36.462 27.266,42.912 34.037,42.386 C40.805,41.855 45.758,34.556 45.1,26.074 C44.441,17.595 38.417,11.142 31.646,11.67 C24.879,12.198 19.926,19.5 20.584,27.982 Z"/>
      <path fill="#7C573E" d="M17.027 28.249C17.21 30.201 18.94 31.636 20.889 31.454 22.842 31.271 24.276 29.543 24.094 27.592 23.913 25.637 22.184 24.203 20.23 24.385 18.278 24.567 16.843 26.298 17.027 28.249zM26.512 47.125C36.049 55.417 39.248 46.065 39.248 46.065"/>
      <path fill="#414042" d="M13.002,93.874 C13.002,93.874 5.4,151.506 5.01,159.187 C28.346,169.247 60.231,134.44 60.231,134.44 L48.741,86.112"/>
      <path fill="#3F2C19" d="M44.327,21.396 C44.088,20.822 44.062,13.996 37.048,10.31 C30.449,6.958 15.569,5.949 17.83,25.652 C19.981,23.328 21.749,28.927 21.749,28.927 L23.606,21.837"/>
      <g fill="#323233" transform="translate(18 3)">
        <rect width="24.591" height="12.755" x=".582" y="1.051" transform="rotate(178.011 12.878 7.429)"/>
        <path d="M25.395,13.294 C25.395,13.294 17.138,20.835 0.823,14.218"/>
      </g>
      <polyline fill="#414042" points="28.577 .257 2.004 5.156 29.657 10.616 55.846 3.969"/>
      <polyline fill="#D1B97D" points="28.957 5.443 39.958 6.961 40.19 13.667 39.792 14.322 40.19 20.463 41.682 19.992 41.241 14.272 40.696 13.875 40.45 6.802 28.971 5.853"/>
      <polygon fill="#000000" points="50.159 143.886 57.592 165.602 45.964 147.253" opacity=".2"/>
      <path fill="#000000" d="M5.01 159.186L12.839 95.097 12.709 161.013C12.709 161.013 8.491 160.667 5.01 159.186zM37.903 152.839L32.695 123.667 42.924 149.479C42.924 149.479 40.961 150.935 37.903 152.839z" opacity=".2"/>
      <polyline fill="#000000" points="17.706 7.039 14.209 25.727 24.86 49.177 17.188 54.701 .188 31.066 5.434 .751" opacity=".2" transform="translate(17 60)"/>
      <g fill="#7C573E" transform="translate(25 91)">
        <path d="M4.942.082C4.942.082 14.514 15.664 15.031 16.485 15.545 17.307 16.147 18.181 18.233 18.086L20.499 18.082C20.499 18.082 21.415 17.777 22.261 19.126L14.293 25.042C14.293 25.042 13.837 24.979 12.542 22.758 11.253 20.539 13.76 22.009.512 7.223M24.543 23.632C24.543 23.632 25.336 25.001 23.936 25.722 23.936 25.722 20.359 28.389 19.016 28.747 19.016 28.747 17.547 29.091 16.897 28.111"/>
        <polyline points="22.26 19.125 24.543 23.632 17.026 28.277 13.877 24.705"/>
        <path d="M21.87,18.779 C21.87,18.779 24.765,21.715 25.525,21.632 C26.286,21.547 24.597,23.804 23.365,22.597"/>
      </g>
      <polyline fill="#414042" points="35.292 66.513 31.792 85.201 42.443 108.65 34.792 113.688 21.155 90.591 23.018 60.226"/>
      <path fill="#7C573E" d="M73.298,100.561 C73.298,100.561 70.819,97.748 69.141,99.19 L65.828,101 C65.828,101 64.758,102.311 66.728,104.291 C68.698,106.27 69.996,104.943 69.996,104.943"/>
      <polyline fill="#000000" points="9.803 190.686 72.096 180.708 .899 174.75" opacity=".1"/>
      <g fill="#8E8E8E" transform="translate(49 78)">
        <rect width="16.437" height=".844" x="14.048" y="6.434" transform="rotate(46.73 22.267 6.934)"/>
        <rect width="16.439" height=".844" x="11.808" y="8.588" transform="rotate(46.734 20.028 9.088)"/>
        <rect width="16.44" height=".846" x="7.318" y="12.803" transform="rotate(46.718 15.538 13.303)"/>
        <rect width="7.147" height=".846" x="4.281" y="13.643" transform="rotate(46.718 7.855 14.143)"/>
        <rect width="16.438" height=".845" x=".589" y="19.101" transform="rotate(46.722 8.808 19.601)"/>
        <rect width="16.439" height=".847" x="-1.652" y="21.216" transform="rotate(46.73 6.568 21.716)"/>
        <rect width="7.03" height=".844" x="11.059" y="7.27" transform="rotate(46.718 14.574 7.77)"/>
        <rect width="16.438" height=".85" x="5.092" y="14.915" transform="rotate(46.718 13.311 15.415)"/>
      </g>
    </g>
    <g fill-rule="nonzero" transform="translate(368 242)">
      <polyline fill="#000000" points=".122 305.589 114.802 294.336 23.098 269.191" opacity=".1"/>
      <g transform="translate(17)">
        <g fill="#FCDDCD" transform="translate(106 124)">
          <path d="M2.408.366C2.408.366 25.702 17.412 26.946 18.303 28.188 19.196 29.591 20.113 32.582 18.727L35.887 17.366C35.887 17.366 37.041 16.377 39.085 17.839L30.981 31.242C30.981 31.242 30.276 31.422 27.06 28.953 23.848 26.481 28.388 27.13.202 13.448M45.114 23.06C45.114 23.06 47.089 24.583 45.475 26.476 45.475 26.476 41.842 32.507 40.096 33.833 40.096 33.833 38.154 35.214 36.621 34.171"/>
          <polyline points="39.084 17.837 45.114 23.06 36.907 34.336 30.172 30.998"/>
          <path d="M38.308,17.569 C38.308,17.569 44.289,20.128 45.35,19.548 C46.411,18.975 45.292,23.277 42.772,22.252"/>
        </g>
        <polygon fill="#000000" points="146.834 147.432 149.478 148.137 141.428 144.472 133.06 152.952 135.546 154.445 137.35 150.667 139.482 148.074 141.575 146.175" opacity=".1"/>
        <polyline fill="#231F20" points="86.87 279.97 87.653 282.753 97.822 289.609 99.427 293.798 67.973 294.629 66.918 289.246 69.819 278.277"/>
        <polyline fill="#231F20" points="21.936 261.586 19.77 263.5 18.004 275.635 14.928 278.898 .532 250.918 4.925 247.632 16.065 245.488"/>
        <polyline fill="#F4F4F4" points="66.684 218.52 106.984 218.165 102.862 136.047 86.409 73.511"/>
        <polyline fill="#414042" points="90.758 174.336 112.656 217.205 89.028 284.44 68.919 281.384 81.655 224.178 67.693 186.89"/>
        <polyline fill="#F4F4F4" points="96.768 75.548 103.823 117.417 137.853 141.599 128.305 154.445 95.263 136.813 74.01 65.925"/>
        <polyline fill="#F4F4F4" points="88.275 71.386 73.586 73.386 82.375 143.677 91.349 151.675 94.643 151.609"/>
        <polyline fill="#414042" points="90.87 204.445 58.303 230.9 21.465 264.974 10.667 245.683 44.894 212.482 52.021 171.479"/>
        <path fill="#F4F4F4" d="M69.644,66.257 C69.676,67.757 107.296,231.894 107.296,231.894 L63.778,228.36 L43.183,211.998 C43.183,211.998 43.799,149.062 56.257,73.952 C57.876,72.918 87.2,73.603 87.2,73.603"/>
        <path fill="#2E72E8" d="M65.026,73.578 L92.581,166.357 L87.16,71.668 C87.16,71.667 68.305,73.512 65.026,73.578 Z"/>
        <polyline fill="#DDDDDD" points="68.915 96.847 83.411 131.634 111.911 112.089 113.506 133.055 110.946 136.264 78.685 148.983 54.662 107.893"/>
        <path fill="#000000" d="M0.918,2.592 C17.606,13.874 23.152,0.54 23.152,0.54" opacity=".2" transform="translate(64 71)"/>
        <rect width="27.774" height="27.778" x="58.034" y="187.023" fill="#DDDDDD" transform="rotate(175.819 71.92 200.911)"/>
        <polyline fill="#000000" points="62.612 227.433 21.465 264.974 19.814 262.023 53.116 219.887" opacity=".2"/>
        <polyline fill="#000000" points="88.108 230.335 72.132 281.872 68.919 281.384 80.424 229.711" opacity=".2"/>
        <polyline fill="#DDDDDD" points="106.312 204.786 95.78 142.244 91.301 144.009 92.581 166.357 97.715 189.917"/>
        <polyline fill="#000000" points="87.153 71.541 90.778 131.317 85.471 129.269" opacity=".2"/>
        <path fill="#FCDDCD" d="M83.583,50.934 L87.437,71.58 L87.117,71.608 C86.647,72.487 80.943,82.321 65.026,73.577 L64.008,55.139 L83.583,50.934 Z"/>
        <polygon fill="#000000" points="75.579 63.998 64.374 61.756 65.026 73.578" opacity=".1"/>
        <path fill="#FCDDCD" d="M53.555,46.392 C55.295,59.242 66.01,68.402 77.491,66.849 C88.971,65.292 96.87,53.618 95.128,40.765 C93.392,27.913 82.673,18.753 71.192,20.308 C59.71,21.863 51.815,33.542 53.555,46.392 Z"/>
        <circle cx="54.711" cy="44.971" r="5.635" fill="#FCDDCD"/>
        <path fill="#F7941E" d="M77.125,33.899 C77.125,33.899 100.849,36.726 101.435,24.154 C102.021,11.584 99.327,0.978 99.627,0.44 C99.931,-0.096 80.609,14.244 66.722,16.675 C52.833,19.105 47.277,27.712 51.929,39.585 C52.242,39.279 64.339,43.967 64.339,43.967 L68.021,33.735"/>
        <g transform="translate(79 80)">
          <path fill="#EFEFEF" d="M47.61,0.223 L36.243,4.125 C35.961,4.221 35.811,4.528 35.907,4.81 L36.149,5.515 C36.247,5.798 36.553,5.947 36.837,5.851 L38.007,5.445 L51.443,44.576 C52.305,47.082 55.033,48.412 57.535,47.554 C60.039,46.694 61.371,43.969 60.512,41.461 L47.075,2.334 L48.203,1.948 C48.483,1.852 48.635,1.545 48.539,1.261 L48.295,0.559 C48.198,0.277 47.891,0.126 47.61,0.223 Z"/>
          <g fill="#4B69E2" transform="translate(41 10)">
            <path d="M17.807,32.453 C18.336,33.993 17.518,35.662 15.983,36.19 C14.444,36.718 12.774,35.902 12.243,34.366 C11.718,32.83 12.535,31.154 14.071,30.629 C15.608,30.101 17.28,30.917 17.807,32.453 Z"/>
            <polygon points="17.807 32.453 12.243 34.366 .504 .552 6.692 .08"/>
          </g>
          <path fill="#FCDDCD" d="M.379 45.251C.379 45.251 33.84 35.582 35.611 35.051 37.381 34.524 39.291 33.86 40.171 29.982L41.313 25.821C41.313 25.821 41.217 23.992 44.124 23.115L50.942 40.742C50.942 40.742 50.594 41.552 45.864 42.799 41.133 44.041 45.104 40.185 11.245 57.01M53.556 21.207C53.556 21.207 56.468 20.451 57.086 23.387 57.086 23.387 60.165 31.307 60.144 33.953 60.144 33.953 60.029 36.824 57.905 37.517"/>
          <polyline fill="#FCDDCD" points="44.918 25.576 53.735 21.82 58.27 37.367 50.116 41.334"/>
        </g>
        <g fill="#4B69E2" transform="translate(87 65)">
          <path d="M36.637,8.691 C36.735,9.994 35.76,11.129 34.458,11.228 C33.158,11.328 32.02,10.353 31.922,9.049 C31.822,7.75 32.798,6.611 34.1,6.513 C35.401,6.414 36.537,7.39 36.637,8.691 Z"/>
          <circle cx="29.11" cy="2.655" r="1.79"/>
          <circle cx="19.812" cy="2.901" r="1.33"/>
          <circle cx="10.507" cy="3.083" r=".804"/>
          <circle cx="1.23" cy="3.592" r=".606"/>
          <circle cx="15.412" cy="6.4" r=".902"/>
          <circle cx="24.461" cy="7.248" r="1.867"/>
        </g>
        <polyline fill="#F4F4F4" points="69.147 94.297 85.813 122.252 111.67 112.109 110.946 136.264 80.562 140.763 53.58 106.293"/>
        <polygon fill="#E6E7E8" points="85.893 122.194 79.543 125.031 86.014 123.789"/>
      </g>
    </g>
    <g transform="translate(16)">
      <polyline fill="#DDB397" fill-rule="nonzero" points="627.495 297.711 648.912 309.484 692.008 309.404 689.853 299.285 653.461 294.128 636.258 278.785"/>
      <g fill-rule="nonzero" transform="translate(656 264)">
        <rect width="41.573" height="59.135" x="1.354" y="5.957" fill="#7A6654" transform="rotate(178.957 22.14 35.525)"/>
        <rect width="34.47" height="51.579" x="4.925" y="9.605" fill="#FFFFFF" transform="rotate(178.963 22.16 35.394)"/>
        <path fill="#8E8E8E" d="M12.092,4.515 L12.13,6.62 L12.227,11.882 L31.168,11.538 L31.072,6.275 L31.034,4.17 L25.772,4.267 C25.726,1.73 24.023,0.087 21.486,0.134 C18.95,0.179 17.308,1.884 17.353,4.419 L12.092,4.515 Z M19.985,4.383 C19.969,3.509 20.661,2.779 21.535,2.765 C22.409,2.749 23.127,3.451 23.143,4.325 C23.158,5.189 22.465,5.907 21.592,5.922 C20.719,5.937 20,5.246 19.985,4.383 Z"/>
        <rect width="18.944" height="2.968" x="12.234" y="8.722" fill="#E6E7E8" transform="rotate(178.963 21.707 10.206)"/>
        <polygon fill="#29CE7F" points="27.338 18.224 32.213 22.923 34.752 20.292 33.126 18.725 32.155 19.732 28.905 16.599"/>
        <polygon fill="#29CE7F" points="27.483 26.202 32.358 30.902 34.897 28.271 33.272 26.704 32.299 27.71 29.05 24.577"/>
        <polygon fill="#29CE7F" points="27.627 34.18 32.502 38.882 35.042 36.25 33.417 34.681 32.444 35.69 29.196 32.556"/>
        <polygon fill="#29CE7F" points="27.772 42.161 32.647 46.861 35.186 44.23 33.561 42.662 32.588 43.669 29.34 40.536"/>
        <rect width="14.667" height="1.513" x="9.103" y="19.286" fill="#E6E7E8" transform="rotate(178.957 16.437 20.042)"/>
        <rect width="14.669" height="1.512" x="9.256" y="27.247" fill="#E6E7E8" transform="rotate(178.963 16.59 28.003)"/>
        <rect width="14.669" height="1.514" x="9.401" y="35.225" fill="#E6E7E8" transform="rotate(178.963 16.736 35.982)"/>
        <rect width="14.669" height="1.514" x="9.545" y="43.205" fill="#E6E7E8" transform="rotate(178.963 16.88 43.962)"/>
      </g>
      <polyline fill="#231F20" fill-rule="nonzero" points="674.743 452.9 675.943 455.558 687.637 460.976 689.892 464.916 656.598 470.021 654.772 464.824 656.415 453.541"/>
      <polyline fill="#231F20" fill-rule="nonzero" points="575.507 472.809 574.294 475.521 577.983 487.914 576.504 492.289 550.468 471.093 553.186 466.171 562.817 459.648"/>
      <path fill="#414042" fill-rule="nonzero" d="M576.696,229.077 C576.696,229.077 580.493,242.948 586.684,247.914 C587.354,247.869 593.436,248.272 593.436,248.272 C593.436,248.272 596.264,236.111 595.941,235.324 C595.624,234.538 591.981,226.517 591.334,225.779"/>
      <polyline fill="#72E3E8" fill-rule="nonzero" points="623.889 347.06 611.536 411.691 577.774 473.632 556.995 461.087 583.274 398.363 574.985 366.364"/>
      <polyline fill="#72E3E8" fill-rule="nonzero" points="618.357 331.935 656.022 385.888 677.663 456.027 653.692 456.841 626.75 396.826 614.933 384.833"/>
      <path fill="#72E3E8" fill-rule="nonzero" d="M618.487,257.046 C618.647,258.324 640.023,360.887 640.023,360.887 L573.616,369.594 C573.616,369.594 576.62,287.948 589.417,258.782 C591.012,257.718 616.325,254.54 616.325,254.54"/>
      <polyline fill="#FFFFFF" fill-rule="nonzero" points="616.239 255.931 612.837 280.667 591.327 259.076"/>
      <polyline fill="#DDB397" fill-rule="nonzero" points="567.514 299.861 565.28 324.199 582.577 363.673 590.467 358.027 581.174 322.232 588.365 300.332"/>
      <circle cx="581.064" cy="224.61" r="6.252" fill="#DDB397" fill-rule="nonzero"/>
      <polygon fill="#000000" fill-rule="nonzero" points="575.684 369.066 638.69 361.062 576.698 372.977" opacity=".2"/>
      <polygon fill="#72E3E8" fill-rule="nonzero" points="566.08 301.066 575.372 270.351 591.055 258.29 588.754 309.087"/>
      <polyline fill="#72E3E8" fill-rule="nonzero" points="625.352 257.474 644.04 282.167 633.561 306.52 622.801 297.291 616.325 254.541"/>
      <polyline fill="#414042" fill-rule="nonzero" points="588.504 260.251 615.247 288.734 620.046 255.679 617.403 254.923 613.397 282.441 590.189 258.504" opacity=".2"/>
      <rect width="3.158" height="7.761" x="582.725" y="370.849" fill="#29CE7F" fill-rule="nonzero" transform="rotate(-111.709 584.304 374.73)"/>
      <path fill="#DDB397" fill-rule="nonzero" d="M699.159,307.482 C701.383,307.281 702.138,304.509 702.138,304.509 C702.75,301.931 701.519,293.524 701.519,293.524 C701.575,290.526 698.568,290.612 698.568,290.612 L694.107,292.726 C694.107,292.726 692.728,294.049 692.871,295.871 L693.555,305.779 C693.555,305.779 694.061,309.415 695.539,308.884 L699.159,307.482 Z"/>
      <g fill="#DDB397" fill-rule="nonzero" transform="translate(568 321)">
        <path d="M12.673.972C12.673.972 21.533 33.946 22.021 35.691 22.508 37.435 23.122 39.316 26.907 40.252L30.964 41.447C30.964 41.447 32.761 41.388 33.565 44.254L16.164 50.609C16.164 50.609 15.377 50.255 14.242 45.595 13.111 40.937 16.816 44.899.951 11.402M35.26 53.531C35.26 53.531 35.949 56.401 33.059 56.953 33.059 56.953 25.241 59.825 22.647 59.756 22.647 59.756 19.833 59.591 19.194 57.494"/>
        <polyline points="33.564 44.253 35.26 53.531 19.334 57.854 15.596 49.79"/>
        <path d="M33.043,43.428 C33.043,43.428 36.669,50.216 38.074,50.471 C39.478,50.726 35.261,53.867 33.696,51.054"/>
      </g>
      <rect width="3.157" height="7.763" x="603.249" y="363.179" fill="#29CE7F" fill-rule="nonzero" transform="rotate(-111.678 604.828 367.061)"/>
      <polygon fill="#000000" fill-rule="nonzero" points="591.866 299.861 588.754 309.087 585.831 308.052 581.174 322.232 588.456 350.279 587.631 327.083" opacity=".2"/>
      <polyline fill="#000000" fill-rule="nonzero" points="574.946 346.257 573.616 369.594 582.657 368.179 583.434 360.073" opacity=".2"/>
      <polygon fill="#000000" fill-rule="nonzero" points="627.654 301.453 625.874 292.886 648.912 309.484 635.458 302.129 633.561 306.52" opacity=".2"/>
      <polygon fill="#000000" fill-rule="nonzero" points="616.387 386.308 617.303 381.519 630.182 396.023 653.692 456.841 626.719 396.845" opacity=".2"/>
      <polygon fill="#000000" fill-rule="nonzero" points="583.274 398.363 562.821 464.605 556.995 461.087" opacity=".2"/>
      <path stroke="#414042" d="M595.967 280.667C583.335 261.233 593.528 255.931 593.528 255.931M615.668 253.077C615.668 253.077 627.08 257.418 620.984 278.083"/>
      <path stroke="#414042" stroke-width="1.5" d="M608.86,298.73 C613.567,297.158 610.291,293.001 610.291,293.001 L605.411,283.283 C605.411,283.283 602.927,276.105 595.44,280.562 C595.44,280.562 588.113,283.881 591.381,289.595 L596.111,299.783 C596.111,299.783 598.367,305.258 601.65,302.672"/>
      <rect width="3.031" height="3.018" x="607.565" y="297.256" fill="#414042" fill-rule="nonzero" transform="rotate(149.082 609.08 298.765)"/>
      <rect width="3.032" height="3.017" x="600.996" y="300.716" fill="#414042" fill-rule="nonzero" transform="rotate(151.19 602.512 302.224)"/>
      <circle cx="620.019" cy="279.103" r="2.903" fill="#414042" fill-rule="nonzero"/>
      <path fill="#DDB397" fill-rule="nonzero" d="M612.547,231.575 L616.324,254.541 C616.324,254.541 612.435,271.548 593.527,258.931 L591.054,236.01 L612.547,231.575 Z"/>
      <polygon fill="#000000" fill-rule="nonzero" points="593.528 258.93 592.137 246.037 605.899 245.252" opacity=".1"/>
      <path fill="#DDB397" fill-rule="nonzero" d="M579.766,226.171 C581.555,240.448 593.34,250.728 606.098,249.132 C618.85,247.532 627.741,234.666 625.952,220.388 C624.164,206.111 612.375,195.832 599.623,197.429 C586.868,199.027 577.977,211.896 579.766,226.171 Z"/>
      <path fill="#414042" fill-rule="nonzero" d="M627.258,211.337 C626.76,210.354 627.623,198.644 613.574,192.712 C600.369,187.327 569.304,187.47 574.692,221.677 C574.857,219.698 584.172,226.253 584.172,226.253 L586.015,204.772"/>
      <polyline fill="#000000" fill-rule="nonzero" points="686.432 461.963 559.129 485.382 550.468 506.083 665.073 482.326" opacity=".1"/>
    </g>
    <g fill-rule="nonzero" transform="translate(741 8)">
      <polyline fill="#FFFFFF" points="86.849 315.719 137.079 313.736 116.242 256.005 72.286 145.313"/>
      <polyline fill="#FFCCA6" points="133.343 85.897 133.701 80.766 137.771 73.643 139.482 65.46 127.093 66.883 122.125 84.79"/>
      <polyline fill="#231F20" points="151.211 355.432 153.635 358.382 169.558 361.281 173.721 365.495 136.135 383.167 132.006 377.218 129.704 359.08"/>
      <polyline fill="#231F20" points="59.762 394.22 61.228 397.746 75.625 405.135 78.387 410.375 37.295 416.392 35.067 409.501 37.155 394.671"/>
      <polygon fill="#F4F4F4" points="112.717 64.425 152.306 70.129 164.475 10.415 119.92 5.016"/>
      <rect width="44.883" height="59.848" x="120.419" y="6.708" fill="#DDDDDD" transform="rotate(-158.168 142.86 36.632)"/>
      <polygon fill="#FFFFFF" points="111.722 64.635 153.663 72.12 169.233 16.798 125.569 6.415"/>
      <g fill="#8E8E8E" transform="translate(120 16)">
        <rect width="31.053" height="1.598" x="9.319" y="3.56" transform="rotate(12.463 24.845 4.36)"/>
        <rect width="31.054" height="1.598" x="8.064" y="9.235" transform="rotate(12.463 23.59 10.034)"/>
        <rect width="31.054" height="1.598" x="5.552" y="20.599" transform="rotate(12.463 21.08 21.398)"/>
        <rect width="13.498" height="1.597" x="3.263" y="30.077" transform="rotate(12.469 10.012 30.875)"/>
        <rect width="31.054" height="1.598" x="1.785" y="37.644" transform="rotate(12.463 17.312 38.443)"/>
        <rect width="31.053" height="1.597" x=".534" y="43.378" transform="rotate(12.469 16.06 44.176)"/>
        <rect width="13.283" height="1.597" x="7.016" y="13.008" transform="rotate(12.463 13.657 13.806)"/>
        <rect width="31.054" height="1.598" x="4.297" y="26.282" transform="rotate(12.463 19.824 27.08)"/>
      </g>
      <path fill="#FFCCA6" d="M121.907,84.19 L123.282,75.249 L120.704,65.893 L122.733,66.197 L126.982,60.344 C126.982,60.344 128.313,56.886 128.621,55.386 C129.097,53.063 132.674,53.994 132.86,55.681 C133.048,57.368 132.845,60.815 131.559,61.79 C131.559,61.79 129.233,68.436 129.959,68.943"/>
      <path fill="#953D33" d="M75.645,165.324 C75.645,165.324 81.124,87.512 80.797,87.024 C74.97,63.443 52.543,70.054 52.678,70.434 C28.111,67.932 20.445,98.004 20.445,98.004 L0.048,177.156 L12.809,174.357 L25.336,142.531 L16.909,174.127"/>
      <polyline fill="#F4F4F4" points="73.562 144.845 104.231 137.677 120.098 79.372 139.116 82.183 127.549 145.583 76.93 196.598"/>
      <polyline fill="#414042" points="75.834 238.458 134.47 273.931 155.25 358.769 128.303 361.77 109.032 294.949 52.233 275.823"/>
      <polyline fill="#FFFFFF" points="73.562 144.845 56.521 148.983 75.397 230.628 86.927 238.949 90.793 238.47"/>
      <polyline fill="#414042" points="81.065 264.89 64.042 337.488 61.88 396.808 36.598 397.148 33.984 333.263 30.617 234.292"/>
      <polyline fill="#000000" points="30.238 103.277 9.358 175.114 12.808 174.357 39.656 106.011" opacity=".2"/>
      <polyline fill="#000000" points="40.43 104.037 25.042 143.168 16.909 174.126 52.024 168.746" opacity=".2"/>
      <path fill="#F4F4F4" d="M65.038,135.603 C65.257,137.365 106.774,330.833 106.774,330.833 L25.336,345.589 C25.336,345.589 13.118,201.698 36.201,151.752 C37.98,150.338 72.567,147.582 72.567,147.582"/>
      <path fill="#EC174F" d="M46.473,150.249 L89.878,252.041 L72.285,145.313 C72.286,145.313 50.323,149.773 46.473,150.249 Z"/>
      <circle cx="36.517" cy="114.114" r="7.078" fill="#FFCCA6"/>
      <polyline fill="#DDDDDD" points="53.872 177.156 75.013 216.356 129.31 230.465 126.878 249.437 66.922 237.207 38.374 191.898"/>
      <path fill="#000000" d="M0.346,5.277 C21.354,16.528 26.26,0.162 26.26,0.162" opacity=".2" transform="translate(46 145)"/>
      <path fill="#FFCCA6" d="M68.043,119.309 L72.26,145.162 L72.26,145.162 L72.26,145.162 L72.285,145.313 L72.191,145.331 C71.527,146.874 65.818,158.418 46.472,150.249 L43.706,124.297 L68.043,119.309 Z"/>
      <polygon fill="#000000" points="64.3 137.696 46.473 150.249 44.528 132" opacity=".1"/>
      <ellipse cx="58.461" cy="111.287" fill="#FFCCA6" transform="rotate(172.935 58.461 111.287)" rx="24.509" ry="29.494"/>
      <polyline fill="#333333" points="49.875 285.828 48.331 278.527 45.928 278.527 47.237 285.828"/>
      <polyline fill="#53ABF4" points="45.928 289.479 44.383 282.177 41.981 282.177 43.29 289.479"/>
      <rect width="32.857" height="32.86" x="42.947" y="283.443" fill="#DDDDDD" transform="rotate(169.927 59.376 299.874)"/>
      <path fill="#953D33" d="M61.143,78.227 C61.143,78.227 47.913,105.177 26.28,110.046 C21.969,110.634 27.333,102.983 31.108,97.556 C32.864,95.032 36.292,83.618 40.495,82.109 C44.696,80.597 53.911,75.695 53.963,75.407 C54.017,75.12 56.484,73.298 56.484,73.298"/>
      <polyline fill="#000000" points="41.891 342.589 38.157 397.127 36.598 397.148 34.421 343.943" opacity=".2"/>
      <polyline fill="#DDDDDD" points="106.774 330.833 88.155 241.538 66.922 237.207"/>
      <polyline fill="#000000" points="77.292 213.296 83.784 215.063 72.26 145.162" opacity=".2"/>
      <polyline fill="#000000" points="89.42 246.677 109.032 294.949 99.924 291.942" opacity=".2"/>
      <polyline fill="#DDDDDD" points="88.158 185.284 84.583 176.284 127.549 145.583"/>
      <polyline fill="#000000" points="129.821 68.317 133.014 71.129 134.266 68.658 129.889 67.873" opacity=".1"/>
      <polyline fill="#000000" points="173.721 365.384 37.295 416.392 18.922 445.634 109.032 422.888" opacity=".1"/>
      <g fill="#FFD6A9" transform="translate(93 219)">
        <path d="M.877.255C.877.255 33.494 10.353 35.229 10.872 36.963 11.39 38.883 11.875 41.695 9.174L44.87 6.38C44.87 6.38 45.778 4.829 48.63 5.677L44.722 23.787C44.722 23.787 44.003 24.264 39.456 22.736 34.912 21.208 40.241 20.187 3.444 15.735M57.383 9.194C57.383 9.194 60.176 10.142 59.103 12.88 59.103 12.88 57.36 21.026 55.916 23.183 55.916 23.183 54.275 25.474 52.162 24.897"/>
        <polyline points="48.629 5.677 57.383 9.194 52.542 24.969 43.727 23.829"/>
        <path d="M47.655,5.677 C47.655,5.677 55.331,6.232 56.296,5.18 C57.261,4.127 57.666,9.369 54.454,9.194"/>
      </g>
      <polyline fill="#F4F4F4" points="53.836 174.126 77.292 213.296 129.276 227.434 126.843 246.409 71.805 234.028 36.975 190.135"/>
      <polyline fill="#F9A141" points="145.163 226.987 135.489 216.197 134.025 216.525 143.079 226.658"/>
      <polyline fill="#F9A141" points="156.062 239.4 151.375 234.159 151.006 235.74 155.084 240.218 157.923 242.757"/>
    </g>
  </g>
</svg>
